<svg width="20" height="20" viewBox="0 0 20 20" fill="none" xmlns="http://www.w3.org/2000/svg">
<path d="M5.37028 0.199839L4.36842 1.20177C4.23463 1.33528 4.16795 1.48907 4.16795 1.66294C4.16795 1.83639 4.23463 1.99011 4.36842 2.12362L12.2443 9.99989L4.36863 17.8758C4.23484 18.0094 4.16816 18.1631 4.16816 18.3368C4.16816 18.5105 4.23484 18.6642 4.36863 18.7977L5.37056 19.7995C5.50407 19.9333 5.65779 20 5.83152 20C6.0051 20 6.15883 19.9331 6.29233 19.7995L15.6312 10.4609C15.7648 10.3273 15.8315 10.1736 15.8315 9.99989C15.8315 9.82624 15.7648 9.67273 15.6312 9.53929L6.29233 0.199839C6.15876 0.0663319 6.00503 0 5.83152 0C5.65779 0 5.50407 0.0663319 5.37028 0.199839Z" fill="#315F8F"/>
</svg>
