<svg width="20" height="20" viewBox="0 0 20 20" fill="none" xmlns="http://www.w3.org/2000/svg">
<path d="M14.6297 19.8002L15.6316 18.7982C15.7653 18.6647 15.832 18.5109 15.832 18.3371C15.832 18.1636 15.7653 18.0099 15.6316 17.8764L7.75571 10.0001L15.6313 2.12418C15.7651 1.9906 15.8318 1.83688 15.8318 1.66322C15.8318 1.48949 15.7651 1.33577 15.6313 1.20226L14.6294 0.200471C14.4959 0.0666833 14.3422 0 14.1685 0C13.9949 0 13.8412 0.0668939 13.7076 0.200471L4.36877 9.53915C4.23519 9.67266 4.16844 9.82645 4.16844 10.0001C4.16844 10.1738 4.23519 10.3273 4.36877 10.4607L13.7076 19.8002C13.8412 19.9337 13.9949 20 14.1685 20C14.3422 20 14.4959 19.9337 14.6297 19.8002Z" fill="#315F8F"/>
</svg>
