<svg width="50" height="50" viewBox="0 0 50 50" fill="none" xmlns="http://www.w3.org/2000/svg">
<path fill-rule="evenodd" clip-rule="evenodd" d="M40.63 25C40.63 33.6322 33.6322 40.63 25 40.63C16.3678 40.63 9.37 33.6322 9.37 25C9.37 16.3678 16.3678 9.37 25 9.37C33.6322 9.37 40.63 16.3678 40.63 25ZM42.1405 30.5115C39.8127 37.7566 33.0187 43 25 43C16.9813 43 10.1873 37.7566 7.85946 30.5115C7.68498 30.804 7.36538 31 7 31H5.185V33H2.815V31H1C0.447715 31 0 30.5523 0 30V20C0 19.4477 0.447715 19 1 19H2.815V17H5.185V19H7C7.36538 19 7.68498 19.196 7.85946 19.4885C10.1873 12.2434 16.9813 7 25 7C33.0187 7 39.8127 12.2434 42.1405 19.4885C42.315 19.196 42.6346 19 43 19H44.815V17H47.185V19H49C49.5523 19 50 19.4477 50 20V30C50 30.5523 49.5523 31 49 31H47.185V33H44.815V31H43C42.6346 31 42.315 30.804 42.1405 30.5115ZM2.37 28.63V21.37H5.63V28.63H2.37ZM16.37 20.37V25.63H33.63V20.37H16.37ZM15 18C14.4477 18 14 18.4477 14 19V27C14 27.5523 14.4477 28 15 28H35C35.5523 28 36 27.5523 36 27V19C36 18.4477 35.5523 18 35 18H15ZM47.63 28.63H44.37V21.37H47.63V28.63ZM20.185 24V22H17.815V24H20.185ZM24.185 22V24H21.815V22H24.185ZM28.185 24V22H25.815V24H28.185ZM32.185 22V24H29.815V22H32.185ZM19 32.63C19.3479 32.63 19.63 32.3479 19.63 32C19.63 31.6521 19.3479 31.37 19 31.37C18.6521 31.37 18.37 31.6521 18.37 32C18.37 32.3479 18.6521 32.63 19 32.63ZM19 35C20.6569 35 22 33.6569 22 32C22 30.3431 20.6569 29 19 29C17.3431 29 16 30.3431 16 32C16 33.6569 17.3431 35 19 35ZM24 33.185H34V30.815H24V33.185Z" fill="#315F8F"/>
</svg>
