<svg width="50" height="50" viewBox="0 0 50 50" fill="none" xmlns="http://www.w3.org/2000/svg">
<path d="M25 39.6336C26.0786 39.6336 26.953 38.7593 26.953 37.6807C26.953 36.602 26.0786 35.7277 25 35.7277C23.9214 35.7277 23.047 36.602 23.047 37.6807C23.047 38.7593 23.9214 39.6336 25 39.6336Z" fill="#214161"/>
<path d="M30.4484 11.3746H19.5514C18.9406 11.3746 18.4436 11.8485 18.4436 12.4298V33.0285C18.4436 33.6103 18.9402 34.0836 19.5514 34.0836H30.4484C31.0592 34.0836 31.5562 33.6098 31.5562 33.0285V12.4298C31.5559 11.848 31.0592 11.3746 30.4484 11.3746Z" fill="#214161"/>
<path d="M24.9985 0C11.192 0 -0.00062561 11.1935 -0.00062561 24.9995C-0.00062561 38.8055 11.192 50 24.9985 50C38.805 50 49.999 38.8062 49.999 24.9995C49.999 11.1928 38.805 0 24.9985 0ZM34.7249 37.3368C34.7249 39.2465 33.1765 40.795 31.2667 40.795H18.731C16.8214 40.795 15.2729 39.2467 15.2729 37.3368V12.5538C15.2729 10.6442 16.8212 9.09567 18.731 9.09567H31.2667C33.1764 9.09567 34.7249 10.644 34.7249 12.5538V37.3368Z" fill="#214161"/>
</svg>
