<svg width="50" height="50" viewBox="0 0 50 50" fill="none" xmlns="http://www.w3.org/2000/svg">
<path d="M24.9989 0C11.1921 0 -0.00062561 11.1931 -0.00062561 24.9993C-0.00062561 38.8056 11.1921 50 24.9987 50C38.8053 50 49.9989 38.8061 49.9989 24.9993C49.9989 11.1926 38.8055 0 24.9989 0ZM26.7252 28.0564C26.7239 28.122 26.7141 28.1877 26.7049 28.2535C26.6984 28.3029 26.6954 28.3534 26.6842 28.4019C26.6731 28.4524 26.6539 28.5022 26.6376 28.5527C26.6181 28.6137 26.5999 28.6745 26.5744 28.732C26.5696 28.742 26.5679 28.7527 26.5636 28.7627C26.5259 28.843 26.4822 28.9184 26.4344 28.9897C26.4314 28.994 26.4274 28.9984 26.4244 29.0027C26.3699 29.0827 26.3077 29.1554 26.2424 29.2235C26.2242 29.2422 26.2057 29.259 26.1866 29.2767C26.129 29.3315 26.0686 29.3817 26.0042 29.4275C25.9844 29.4419 25.9654 29.4569 25.9445 29.4707C25.862 29.5247 25.7755 29.5722 25.6855 29.6112C25.666 29.6199 25.6457 29.625 25.6259 29.6329C25.5499 29.6622 25.4729 29.6865 25.3934 29.705C25.3649 29.7119 25.3367 29.718 25.3077 29.7232C25.2057 29.7419 25.1024 29.7547 24.9977 29.7547C24.9765 29.7547 24.9549 29.7482 24.9337 29.7474C24.8334 29.7435 24.734 29.7357 24.6385 29.7154C24.6087 29.7089 24.5794 29.6959 24.5495 29.6877C24.4605 29.6635 24.3735 29.6367 24.2905 29.5995C24.281 29.5947 24.271 29.5939 24.2615 29.5895L14.6756 25.068C13.812 24.6608 13.442 23.6303 13.8491 22.7667C14.2563 21.9035 15.2868 21.533 16.1505 21.9401L23.2699 25.2975V10.3749C23.2699 9.42006 24.044 8.64589 24.9989 8.64589C25.9537 8.64589 26.7279 9.42006 26.7279 10.3749V28.0252H26.7282C26.7282 28.0355 26.7252 28.0459 26.7252 28.0564Z" fill="#214161"/>
</svg>
