<svg width="50" height="50" viewBox="0 0 50 50" fill="none" xmlns="http://www.w3.org/2000/svg">
<path d="M25.0722 22.4539C27.2951 22.4539 29.0971 20.6519 29.0971 18.429C29.0971 16.2061 27.2951 14.4041 25.0722 14.4041C22.8494 14.4041 21.0474 16.2061 21.0474 18.429C21.0474 20.6519 22.8494 22.4539 25.0722 22.4539Z" fill="#214161"/>
<path d="M24.9988 0C11.1922 0 -0.000610352 11.1931 -0.000610352 24.9997C-0.000610352 38.8061 11.1922 50 24.9988 50C38.8054 50 49.9991 38.8061 49.9991 24.9997C49.9991 11.1931 38.8054 0 24.9988 0ZM24.947 11.4464C24.9646 11.4464 24.982 11.4456 24.9993 11.4448C25.0166 11.4456 25.0338 11.4464 25.0516 11.4464C29.264 11.5129 32.6907 14.9945 32.6907 19.2079C32.6907 24.3592 27.1867 29.5755 24.9993 31.4445C24.8531 31.3195 24.6911 31.1786 24.5178 31.0243C24.5148 31.0216 24.5121 31.0195 24.5096 31.017C22.0889 28.866 17.3081 24.0094 17.3081 19.2079C17.3079 14.9945 20.7349 11.5131 24.947 11.4464ZM25.1078 38.7087C20.4973 38.7087 15.8295 37.386 15.8295 34.859C15.8295 33.0855 18.1279 31.9062 21.0911 31.3598C21.6643 31.936 22.2068 32.444 22.6828 32.868C19.4551 33.2285 17.5587 34.2503 17.5587 34.8585C17.5587 35.6059 20.4246 36.9792 25.1078 36.9792C29.791 36.9792 32.6574 35.6059 32.6574 34.8585C32.6574 34.2378 30.681 33.1903 27.3362 32.8498C27.8163 32.421 28.3632 31.9083 28.9407 31.3261C31.9929 31.8575 34.3864 33.0487 34.3864 34.859C34.3864 37.386 29.7187 38.7087 25.1078 38.7087Z" fill="#214161"/>
</svg>
