<svg width="75" height="75" viewBox="0 0 75 75" fill="none" xmlns="http://www.w3.org/2000/svg">
<g clip-path="url(#clip0)">
<path d="M37.2788 39C29.4055 39 23 32.5945 23 24.7217C23 17.3602 34.7466 2.27382 36.0856 0.578082C36.3739 0.213297 36.8137 0 37.2783 0C37.7429 0 38.1826 0.212791 38.4709 0.578082C39.8105 2.27433 51.5565 17.3602 51.5565 24.7217C51.557 32.5945 45.152 39 37.2788 39Z" fill="url(#paint0_linear)" fill-opacity="0.4"/>
<path d="M37.2778 36C45.151 36 51.5565 42.4055 51.5565 50.2783C51.5565 57.6398 39.81 72.7262 38.4709 74.4219C38.1826 74.7867 37.7429 75 37.2783 75C36.8137 75 36.3739 74.7872 36.0856 74.4219C34.7461 72.7257 23 57.6398 23 50.2783C22.9995 42.4055 29.4045 36 37.2778 36Z" fill="url(#paint1_linear)" fill-opacity="0.4"/>
<path d="M39 39.2777C39 47.151 32.5945 53.5565 24.7217 53.5565C17.3602 53.5565 2.27382 41.81 0.578082 40.4709C0.213297 40.1826 0 39.7428 0 39.2783C0 38.8137 0.212791 38.3739 0.578082 38.0856C2.27433 36.746 17.3602 25 24.7217 25C32.5945 24.9995 39 31.4045 39 39.2777Z" fill="url(#paint2_linear)" fill-opacity="0.4"/>
<path d="M36 39.2788C36 31.4055 42.4055 25 50.2783 25C57.6398 25 72.7262 36.7466 74.4219 38.0856C74.7867 38.3739 75 38.8137 75 39.2783C75 39.7429 74.7872 40.1826 74.4219 40.4709C72.7257 41.8105 57.6398 53.5565 50.2783 53.5565C42.4055 53.557 36 47.152 36 39.2788Z" fill="url(#paint3_linear)" fill-opacity="0.4"/>
<path d="M36.6738 37.6732C31.1065 43.2404 22.0478 43.2404 16.4809 37.6735C11.2755 32.4681 8.91391 13.4944 8.6617 11.3485C8.6076 10.8867 8.76774 10.4249 9.09626 10.0964C9.42477 9.76785 9.8862 9.60736 10.3483 9.66181C12.495 9.91402 31.468 12.2756 36.6734 17.481C42.2407 23.0475 42.241 32.1059 36.6738 37.6732Z" fill="url(#paint4_linear)" fill-opacity="0.4"/>
<path d="M38.0976 37.6738C32.5303 32.1065 32.5303 23.0478 38.0972 17.4809C43.3026 12.2755 62.2764 9.91391 64.4223 9.6617C64.8841 9.6076 65.3459 9.76774 65.6744 10.0963C66.0029 10.4248 66.1634 10.8862 66.1089 11.3483C65.8567 13.495 63.4951 32.468 58.2897 37.6734C52.7232 43.2407 43.6648 43.241 38.0976 37.6738Z" fill="url(#paint5_linear)" fill-opacity="0.4"/>
<path d="M37.0958 40.0966C42.663 34.5294 51.7217 34.5294 57.2886 40.0962C62.494 45.3016 64.8556 64.2754 65.1078 66.4213C65.1619 66.8831 65.0018 67.3449 64.6733 67.6734C64.3448 68.0019 63.8833 68.1624 63.4212 68.108C61.2745 67.8558 42.3015 65.4942 37.0961 60.2888C31.5289 54.7222 31.5285 45.6638 37.0958 40.0966Z" fill="url(#paint6_linear)" fill-opacity="0.4"/>
<path d="M37.6731 40.0959C43.2403 45.6631 43.2403 54.7219 37.6734 60.2887C32.468 65.4941 13.4943 67.8557 11.3483 68.108C10.8866 68.1621 10.4248 68.0019 10.0962 67.6734C9.76773 67.3449 9.60723 66.8835 9.66169 66.4213C9.9139 64.2747 12.2755 45.3016 17.4809 40.0962C23.0474 34.529 32.1058 34.5286 37.6731 40.0959Z" fill="url(#paint7_linear)" fill-opacity="0.4"/>
<path d="M54.2399 50.9968C56.6025 47.771 58 43.7959 58 39.5C58 35.204 56.6024 31.2288 54.2396 28.0029L55.6828 26.5597C55.9757 26.2668 55.9757 25.7919 55.6828 25.4991L52.5007 22.3169C52.2078 22.024 51.733 22.024 51.44 22.3169L49.9968 23.7601C46.7709 21.3974 42.7959 20 38.5 20C34.204 20 30.229 21.3975 27.0032 23.7601L25.5599 22.3168C25.267 22.0239 24.7921 22.0239 24.4993 22.3168L21.3171 25.499C21.0242 25.7919 21.0242 26.2668 21.3171 26.5596L22.7603 28.0028C20.3975 31.2288 19 35.204 19 39.5C19 43.796 20.3974 47.771 22.7601 50.9968L21.3171 52.4397C21.1764 52.5803 21.0974 52.7711 21.0974 52.97C21.0974 53.1689 21.1764 53.3597 21.3171 53.5003L24.4993 56.6825C24.6457 56.829 24.8377 56.9022 25.0296 56.9022C25.2215 56.9022 25.4135 56.829 25.5599 56.6825L27.0028 55.2396C30.2287 57.6024 34.2039 59 38.5 59C42.796 59 46.7712 57.6024 49.9971 55.2396L51.44 56.6824C51.5864 56.8289 51.7784 56.9021 51.9703 56.9021C52.1622 56.9021 52.3542 56.8289 52.5007 56.6824L55.6828 53.5002C55.9757 53.2073 55.9757 52.7324 55.6828 52.4396L54.2399 50.9968ZM51.9703 23.9079L54.0917 26.0294L53.3015 26.8196C52.6494 26.0596 51.9401 25.3503 51.1801 24.6982L51.9703 23.9079ZM22.9082 26.0294L25.0296 23.908L25.8198 24.6982C25.0598 25.3503 24.3505 26.0596 23.6983 26.8196L22.9082 26.0294ZM25.0296 55.0914L22.9082 52.97L23.6981 52.1801C24.3502 52.9401 25.0595 53.6494 25.8195 54.3016L25.0296 55.0914ZM51.9703 55.0914L51.1804 54.3016C51.9404 53.6495 52.6497 52.9402 53.3018 52.1801L54.0917 52.9699L51.9703 55.0914Z" fill="#315F8F"/>
<path d="M38.4995 23.0278C29.4167 23.0278 22.0273 30.4173 22.0273 39.5001C22.0273 48.583 29.4168 55.9723 38.4995 55.9723C47.5823 55.9723 54.9718 48.5829 54.9718 39.5001C54.9719 30.4173 47.5824 23.0278 38.4995 23.0278ZM38.4995 54.4723C30.2438 54.4723 23.5274 47.7557 23.5274 39.5001C23.5274 31.2444 30.2439 24.5279 38.4995 24.5279C46.7553 24.5279 53.4717 31.2444 53.4717 39.5001C53.4718 47.7557 46.7553 54.4723 38.4995 54.4723Z" fill="white"/>
<path d="M51.0346 41.3339H47.0015V37.6659H51.0346C51.4489 37.6659 51.7846 37.3301 51.7846 36.9159C51.7846 36.5016 51.4489 36.1658 51.0346 36.1658H47.0015V32.4986H48.6792C49.0935 32.4986 49.4292 32.1628 49.4292 31.7486C49.4292 31.3344 49.0935 30.9986 48.6792 30.9986H47.0015V29.3207C47.0015 28.9065 46.6658 28.5706 46.2515 28.5706C45.8371 28.5706 45.5014 28.9065 45.5014 29.3207V30.9985H41.8335V26.9654C41.8335 26.5511 41.4977 26.2153 41.0834 26.2153C40.6691 26.2153 40.3334 26.5511 40.3334 26.9654V30.9985H36.6654V26.9654C36.6654 26.5511 36.3296 26.2153 35.9154 26.2153C35.5011 26.2153 35.1653 26.5511 35.1653 26.9654V30.9985H31.4982V29.3199C31.4982 28.9057 31.1623 28.5698 30.7481 28.5698C30.3339 28.5698 29.9981 28.9057 29.9981 29.3199V30.9985H28.3194C27.9052 30.9985 27.5694 31.3343 27.5694 31.7485C27.5694 32.1627 27.9052 32.4985 28.3194 32.4985H29.998V36.1657H25.9649C25.5507 36.1657 25.2148 36.5015 25.2148 36.9158C25.2148 37.33 25.5507 37.6658 25.9649 37.6658H29.998V41.3338H25.9649C25.5507 41.3338 25.2148 41.6696 25.2148 42.0838C25.2148 42.498 25.5507 42.8338 25.9649 42.8338H29.998V46.5018H28.3194C27.9052 46.5018 27.5694 46.8376 27.5694 47.2519C27.5694 47.6661 27.9052 48.0019 28.3194 48.0019H29.998V49.6805C29.998 50.0947 30.3338 50.4305 30.748 50.4305C31.1622 50.4305 31.4981 50.0947 31.4981 49.6805V48.0019H35.1652V52.035C35.1652 52.4492 35.501 52.785 35.9153 52.785C36.3295 52.785 36.6653 52.4492 36.6653 52.035V48.0019H40.3333V52.035C40.3333 52.4492 40.669 52.785 41.0833 52.785C41.4976 52.785 41.8334 52.4492 41.8334 52.035V48.0019H45.5014V49.6797C45.5014 50.0939 45.8371 50.4297 46.2515 50.4297C46.6658 50.4297 47.0015 50.0939 47.0015 49.6797V48.0019H48.6792C49.0935 48.0019 49.4292 47.6661 49.4292 47.2519C49.4292 46.8376 49.0935 46.5018 48.6792 46.5018H47.0015V42.8338H51.0346C51.4489 42.8338 51.7846 42.498 51.7846 42.0838C51.7846 41.6696 51.4489 41.3339 51.0346 41.3339ZM45.5014 41.3339H41.8335V37.6659H45.5015V41.3339H45.5014ZM40.3334 41.3339H36.6654V37.6659H40.3334V41.3339ZM45.5014 32.4985V36.1657H41.8335V32.4985H45.5014ZM40.3334 32.4985V36.1657H36.6654V32.4985H40.3334ZM31.4981 32.4985H35.1652V36.1657H31.4981V32.4985ZM31.4981 37.6658H35.1652V41.3338H31.4981V37.6658ZM31.4981 46.5019V42.8339H35.1652V46.5019H31.4981ZM36.6653 46.5019V42.8339H40.3333V46.5019H36.6653ZM45.5014 46.5019H41.8335V42.8339H45.5015V46.5019H45.5014Z" fill="white"/>
</g>
<defs>
<linearGradient id="paint0_linear" x1="37.2783" y1="0" x2="37.2783" y2="39" gradientUnits="userSpaceOnUse">
<stop stop-color="#00A3DE"/>
<stop offset="1" stop-color="#93CCF4" stop-opacity="0.56"/>
</linearGradient>
<linearGradient id="paint1_linear" x1="37.2783" y1="75" x2="37.2783" y2="36" gradientUnits="userSpaceOnUse">
<stop stop-color="#00A3DE"/>
<stop offset="1" stop-color="#93CCF4" stop-opacity="0.56"/>
</linearGradient>
<linearGradient id="paint2_linear" x1="0" y1="39.2783" x2="39" y2="39.2783" gradientUnits="userSpaceOnUse">
<stop stop-color="#00A3DE"/>
<stop offset="1" stop-color="#93CCF4" stop-opacity="0.56"/>
</linearGradient>
<linearGradient id="paint3_linear" x1="75" y1="39.2783" x2="36" y2="39.2783" gradientUnits="userSpaceOnUse">
<stop stop-color="#00A3DE"/>
<stop offset="1" stop-color="#93CCF4" stop-opacity="0.56"/>
</linearGradient>
<linearGradient id="paint4_linear" x1="9.09626" y1="10.0964" x2="36.6734" y2="37.6735" gradientUnits="userSpaceOnUse">
<stop stop-color="#00A3DE"/>
<stop offset="1" stop-color="#93CCF4" stop-opacity="0.56"/>
</linearGradient>
<linearGradient id="paint5_linear" x1="65.6744" y1="10.0963" x2="38.0972" y2="37.6734" gradientUnits="userSpaceOnUse">
<stop stop-color="#00A3DE"/>
<stop offset="1" stop-color="#93CCF4" stop-opacity="0.56"/>
</linearGradient>
<linearGradient id="paint6_linear" x1="64.6733" y1="67.6734" x2="37.0961" y2="40.0962" gradientUnits="userSpaceOnUse">
<stop stop-color="#00A3DE"/>
<stop offset="1" stop-color="#93CCF4" stop-opacity="0.56"/>
</linearGradient>
<linearGradient id="paint7_linear" x1="10.0962" y1="67.6734" x2="37.6734" y2="40.0962" gradientUnits="userSpaceOnUse">
<stop stop-color="#00A3DE"/>
<stop offset="1" stop-color="#93CCF4" stop-opacity="0.56"/>
</linearGradient>
<clipPath id="clip0">
<rect width="75" height="75" fill="white"/>
</clipPath>
</defs>
</svg>
