<svg width="75" height="75" viewBox="0 0 75 75" fill="none" xmlns="http://www.w3.org/2000/svg">
<g clip-path="url(#clip0)">
<path d="M37.2788 39C29.4055 39 23 32.5945 23 24.7217C23 17.3602 34.7466 2.27382 36.0856 0.578082C36.3739 0.213297 36.8137 0 37.2783 0C37.7429 0 38.1826 0.212791 38.4709 0.578082C39.8105 2.27433 51.5565 17.3602 51.5565 24.7217C51.557 32.5945 45.152 39 37.2788 39Z" fill="url(#paint0_linear)" fill-opacity="0.4"/>
<path d="M37.2778 36C45.151 36 51.5565 42.4055 51.5565 50.2783C51.5565 57.6398 39.81 72.7262 38.4709 74.4219C38.1826 74.7867 37.7429 75 37.2783 75C36.8137 75 36.3739 74.7872 36.0856 74.4219C34.7461 72.7257 23 57.6398 23 50.2783C22.9995 42.4055 29.4045 36 37.2778 36Z" fill="url(#paint1_linear)" fill-opacity="0.4"/>
<path d="M39 39.2777C39 47.151 32.5945 53.5565 24.7217 53.5565C17.3602 53.5565 2.27382 41.81 0.578082 40.4709C0.213297 40.1826 0 39.7428 0 39.2783C0 38.8137 0.212791 38.3739 0.578082 38.0856C2.27433 36.746 17.3602 25 24.7217 25C32.5945 24.9995 39 31.4045 39 39.2777Z" fill="url(#paint2_linear)" fill-opacity="0.4"/>
<path d="M36 39.2788C36 31.4055 42.4055 25 50.2783 25C57.6398 25 72.7262 36.7466 74.4219 38.0856C74.7867 38.3739 75 38.8137 75 39.2783C75 39.7429 74.7872 40.1826 74.4219 40.4709C72.7257 41.8105 57.6398 53.5565 50.2783 53.5565C42.4055 53.557 36 47.152 36 39.2788Z" fill="url(#paint3_linear)" fill-opacity="0.4"/>
<path d="M36.6738 37.6732C31.1065 43.2404 22.0478 43.2404 16.4809 37.6735C11.2755 32.4681 8.91391 13.4944 8.6617 11.3485C8.6076 10.8867 8.76774 10.4249 9.09626 10.0964C9.42477 9.76785 9.8862 9.60736 10.3483 9.66181C12.495 9.91402 31.468 12.2756 36.6734 17.481C42.2407 23.0475 42.241 32.1059 36.6738 37.6732Z" fill="url(#paint4_linear)" fill-opacity="0.4"/>
<path d="M38.0976 37.6738C32.5303 32.1065 32.5303 23.0478 38.0972 17.4809C43.3026 12.2755 62.2764 9.91391 64.4223 9.6617C64.8841 9.6076 65.3459 9.76774 65.6744 10.0963C66.0029 10.4248 66.1634 10.8862 66.1089 11.3483C65.8567 13.495 63.4951 32.468 58.2897 37.6734C52.7232 43.2407 43.6648 43.241 38.0976 37.6738Z" fill="url(#paint5_linear)" fill-opacity="0.4"/>
<path d="M37.0958 40.0966C42.663 34.5294 51.7217 34.5294 57.2886 40.0962C62.494 45.3016 64.8556 64.2754 65.1078 66.4213C65.1619 66.8831 65.0018 67.3449 64.6733 67.6734C64.3448 68.0019 63.8833 68.1624 63.4212 68.108C61.2745 67.8558 42.3015 65.4942 37.0961 60.2888C31.5289 54.7222 31.5285 45.6638 37.0958 40.0966Z" fill="url(#paint6_linear)" fill-opacity="0.4"/>
<path d="M37.6731 40.0959C43.2403 45.6631 43.2403 54.7219 37.6734 60.2888C32.468 65.4942 13.4943 67.8558 11.3483 68.108C10.8866 68.1621 10.4248 68.0019 10.0962 67.6734C9.76773 67.3449 9.60723 66.8835 9.66169 66.4213C9.9139 64.2747 12.2755 45.3017 17.4809 40.0963C23.0474 34.529 32.1058 34.5287 37.6731 40.0959Z" fill="url(#paint7_linear)" fill-opacity="0.4"/>
<path d="M37.5014 57C29.6282 57 23.2227 50.5945 23.2227 42.7217C23.2227 35.3602 34.9692 20.2738 36.3083 18.5781C36.5966 18.2133 37.0363 18 37.5009 18C37.9655 18 38.4053 18.2128 38.6936 18.5781C40.0331 20.2743 51.7792 35.3602 51.7792 42.7217C51.7797 50.5945 45.3747 57 37.5014 57Z" fill="white"/>
<path d="M37.5016 50.9223C36.6621 50.9223 35.9817 50.2419 35.9817 49.4023C35.9817 48.5628 36.6621 47.8824 37.5016 47.8824C40.3469 47.8824 42.6623 45.5686 42.6623 42.7232C42.6623 41.8837 43.3427 41.2033 44.1822 41.2033C45.0213 41.2033 45.7022 41.8837 45.7022 42.7232C45.7017 47.244 42.0229 50.9223 37.5016 50.9223Z" fill="white"/>
<path d="M37.5469 55C30.8849 55 25.4648 49.58 25.4648 42.9184C25.4648 36.6894 35.4042 23.924 36.5373 22.4891C36.7812 22.1805 37.1533 22 37.5465 22C37.9396 22 38.3117 22.1801 38.5556 22.4891C39.6891 23.9244 49.6281 36.6894 49.6281 42.9184C49.6285 49.58 44.2089 55 37.5469 55Z" fill="#315F8F"/>
<path d="M37.5459 49.8573C36.8356 49.8573 36.2598 49.2816 36.2598 48.5712C36.2598 47.8609 36.8356 47.2851 37.5459 47.2851C39.9535 47.2851 41.9127 45.3273 41.9127 42.9197C41.9127 42.2093 42.4884 41.6336 43.1988 41.6336C43.9087 41.6336 44.4849 42.2093 44.4849 42.9197C44.4844 46.745 41.3716 49.8573 37.5459 49.8573Z" fill="white"/>
</g>
<defs>
<linearGradient id="paint0_linear" x1="37.2783" y1="0" x2="37.2783" y2="39" gradientUnits="userSpaceOnUse">
<stop stop-color="#00A3DE"/>
<stop offset="1" stop-color="#93CCF4" stop-opacity="0.56"/>
</linearGradient>
<linearGradient id="paint1_linear" x1="37.2783" y1="75" x2="37.2783" y2="36" gradientUnits="userSpaceOnUse">
<stop stop-color="#00A3DE"/>
<stop offset="1" stop-color="#93CCF4" stop-opacity="0.56"/>
</linearGradient>
<linearGradient id="paint2_linear" x1="0" y1="39.2783" x2="39" y2="39.2783" gradientUnits="userSpaceOnUse">
<stop stop-color="#00A3DE"/>
<stop offset="1" stop-color="#93CCF4" stop-opacity="0.56"/>
</linearGradient>
<linearGradient id="paint3_linear" x1="75" y1="39.2783" x2="36" y2="39.2783" gradientUnits="userSpaceOnUse">
<stop stop-color="#00A3DE"/>
<stop offset="1" stop-color="#93CCF4" stop-opacity="0.56"/>
</linearGradient>
<linearGradient id="paint4_linear" x1="9.09626" y1="10.0964" x2="36.6734" y2="37.6735" gradientUnits="userSpaceOnUse">
<stop stop-color="#00A3DE"/>
<stop offset="1" stop-color="#93CCF4" stop-opacity="0.56"/>
</linearGradient>
<linearGradient id="paint5_linear" x1="65.6744" y1="10.0963" x2="38.0972" y2="37.6734" gradientUnits="userSpaceOnUse">
<stop stop-color="#00A3DE"/>
<stop offset="1" stop-color="#93CCF4" stop-opacity="0.56"/>
</linearGradient>
<linearGradient id="paint6_linear" x1="64.6733" y1="67.6734" x2="37.0961" y2="40.0962" gradientUnits="userSpaceOnUse">
<stop stop-color="#00A3DE"/>
<stop offset="1" stop-color="#93CCF4" stop-opacity="0.56"/>
</linearGradient>
<linearGradient id="paint7_linear" x1="10.0962" y1="67.6734" x2="37.6734" y2="40.0963" gradientUnits="userSpaceOnUse">
<stop stop-color="#00A3DE"/>
<stop offset="1" stop-color="#93CCF4" stop-opacity="0.56"/>
</linearGradient>
<clipPath id="clip0">
<rect width="75" height="75" fill="white"/>
</clipPath>
</defs>
</svg>
