<svg width="51" height="101" viewBox="0 0 51 101" fill="none" xmlns="http://www.w3.org/2000/svg">
<g clip-path="url(#clip0)">
<path d="M25.8695 23.6215C27.4319 23.6215 28.9943 24.9051 30.7476 25.289C32.5008 25.6729 32.9302 25.6489 34.421 25.289C35.9119 24.9291 37.6412 23.7535 39.2991 23.7775C40.9927 23.8014 42.2807 24.7612 43.9147 25.7689C42.3046 21.4261 39.967 18.067 36.866 15.6317H14.7657C11.6528 18.055 9.30325 21.4141 7.68121 25.7449C9.32711 24.7372 10.6033 23.7775 12.2969 23.7535C13.9547 23.7295 15.6721 24.9051 17.1749 25.265C18.6658 25.6249 19.0832 25.6489 20.8484 25.265C22.6016 24.8931 24.3071 23.6215 25.8695 23.6215Z" fill="white"/>
<path d="M25.7383 35.1622C22.5062 35.1742 21.063 37.7655 17.1868 36.8298C15.7079 36.4819 13.9666 35.2942 12.3088 35.3182C10.6152 35.3422 9.32708 36.3019 7.69312 37.3096C10.3289 39.1331 12.3923 41.5205 13.9189 44.3517C22.6612 44.3637 30.6163 44.3517 37.7843 44.3037C39.3944 40.9326 41.4339 38.5933 43.9266 37.2856C42.2807 36.2779 41.0046 35.3182 39.311 35.2942C37.6531 35.2702 35.9357 36.4459 34.4329 36.8058C32.9421 37.1657 32.5246 37.1897 30.7595 36.8058C29.0062 36.4339 27.2888 35.1622 25.7383 35.1622Z" fill="white"/>
<path d="M36.8538 45.7194L33.5621 45.7074C32.2978 49.3424 30.64 52.4375 28.5886 54.9928C27.873 54.249 27.2409 53.4453 26.6922 52.5695C28.1712 50.4461 29.3519 48.1667 30.2345 45.7434L21.3968 45.7554C22.2793 48.1907 23.4601 50.4581 24.939 52.5815C24.3785 53.4453 23.7463 54.261 23.0427 55.0048C20.8601 52.1976 19.2022 49.1025 18.0692 45.7194H14.7774C15.3022 67.3134 10.6865 85.5364 0.596497 100.4C10.9728 96.7892 19.3811 92.6504 25.8097 87.9597C32.0235 92.6384 40.3842 96.8972 50.9155 100.724C39.9906 80.4378 35.3034 62.0949 36.8538 45.7194ZM37.0685 76.9827C37.9988 80.0899 38.7025 82.3572 39.1796 83.7729C36.9135 82.5972 35.2079 81.5895 33.9914 80.5098C35.3272 79.0102 36.3529 77.8345 37.0685 76.9827ZM30.8666 78.3384C29.3161 77.0667 28.0042 75.7951 26.9069 74.5234L30.9501 69.1369C32.5125 70.5165 33.9914 71.8002 35.3749 72.9518C33.6813 75.2192 32.1785 77.0187 30.8666 78.3384ZM25.8097 73.5997C24.3069 72.1481 22.9592 70.3486 21.7307 68.2012C22.816 66.9895 24.1757 65.6219 25.8097 64.0743C27.4436 65.6099 28.8152 66.9895 29.8886 68.1892C28.6721 70.3366 27.3124 72.1361 25.8097 73.5997ZM35.3034 69.0289C34.3731 68.2252 33.5024 67.3854 32.7033 66.5216C33.3474 65.6339 33.9437 64.7941 34.4923 64.0143C34.8859 66.0778 35.1483 67.7453 35.3034 69.0289ZM33.5382 54.1291C33.6813 55.9886 33.8244 58.016 33.9437 60.2114C33.0611 59.5036 32.1189 58.5918 31.0932 57.4641C31.8446 56.5404 32.6556 55.4247 33.5382 54.1291ZM30.1987 58.6878C31.4629 59.8875 32.7033 60.9552 33.9079 61.9029C33.4428 63.0906 32.7272 64.2543 31.7611 65.4179C30.3776 64.3022 29.0895 62.9826 27.8968 61.459C28.8152 60.4393 29.5904 59.5276 30.1987 58.6878ZM23.3527 46.967C24.3546 46.967 25.3564 46.967 26.3583 46.9551H28.2785C27.873 48.2987 27.0381 49.8223 25.7977 51.5498C24.5693 49.8343 23.7583 48.3107 23.3527 46.967ZM25.8216 53.5292C26.3583 54.249 27.0023 55.0648 27.7656 55.9646C27.1693 57.0563 26.5133 57.98 25.8097 58.7358V58.7598L25.7977 58.7478C25.0941 57.992 24.45 57.0683 23.8537 55.9766C24.6289 55.0648 25.2849 54.249 25.8216 53.5292ZM23.7344 61.459C22.5417 62.9826 21.2536 64.2902 19.8701 65.4179C18.9041 64.2663 18.1765 63.0906 17.7233 61.9029C18.9279 60.9552 20.1683 59.8875 21.4325 58.6878C22.0408 59.5276 22.816 60.4513 23.7344 61.459ZM18.0931 54.1411C18.9637 55.4367 19.7867 56.5524 20.538 57.4761C19.5123 58.6038 18.5701 59.5156 17.6875 60.2234C17.8187 58.028 17.9499 56.0005 18.0931 54.1411ZM17.127 64.0143C17.6875 64.7941 18.2839 65.6339 18.916 66.5216C18.1169 67.3854 17.2582 68.2252 16.316 69.0289C16.4829 67.7573 16.7453 66.0897 17.127 64.0143ZM20.6812 69.1369L24.7243 74.5234C23.6271 75.7951 22.3032 77.0667 20.7646 78.3384C19.4527 77.0187 17.9499 75.2312 16.2563 72.9518C17.6398 71.8002 19.1187 70.5285 20.6812 69.1369ZM14.5627 76.9827C15.2783 77.8465 16.304 79.0222 17.6398 80.4978C16.4233 81.5775 14.7178 82.5852 12.4517 83.7609C12.9288 82.3572 13.6324 80.1019 14.5627 76.9827ZM8.15806 93.8261C9.67276 90.8149 10.8535 88.1156 11.7003 85.7283C14.2049 84.4087 16.4829 83.065 18.5343 81.6974C19.7866 82.7531 21.2298 84.0128 22.8757 85.4764C18.0453 88.9074 13.1434 91.6907 8.15806 93.8261ZM25.8216 83.113C24.295 81.8294 22.983 80.5577 21.85 79.2741C22.7803 78.6743 24.0922 77.4626 25.7858 75.6391C27.4913 77.4626 28.8152 78.6623 29.7574 79.2741C28.6602 80.5457 27.3363 81.8294 25.8216 83.113ZM33.1088 81.6854C35.1602 83.0531 37.4383 84.3967 39.9429 85.7163C40.7897 88.1036 41.9704 90.8029 43.4851 93.8141C38.4997 91.6787 33.5859 88.8954 28.7675 85.4524C30.4015 84.0008 31.8565 82.7411 33.1088 81.6854Z" fill="#2F5E91"/>
<path d="M25.7383 35.1622C22.5062 35.1742 21.063 37.7655 17.1868 36.8298C15.7079 36.4819 13.9666 35.2942 12.3088 35.3182C10.6152 35.3422 9.32708 36.3019 7.69312 37.3096C10.3289 39.1331 12.3923 41.5205 13.9189 44.3517C22.6612 44.3637 30.6163 44.3517 37.7843 44.3037C39.3944 40.9326 41.4339 38.5933 43.9266 37.2856C42.2807 36.2779 41.0046 35.3182 39.311 35.2942C37.6531 35.2702 35.9357 36.4459 34.4329 36.8058C32.9421 37.1657 32.5246 37.1897 30.7595 36.8058C29.0062 36.4339 27.2888 35.1622 25.7383 35.1622Z" fill="#2F5E91"/>
<path d="M25.8695 23.6215C27.4319 23.6215 28.9943 24.9051 30.7476 25.289C32.5008 25.6729 32.9302 25.6489 34.421 25.289C35.9119 24.9291 37.6412 23.7535 39.2991 23.7775C40.9927 23.8014 42.2807 24.7612 43.9147 25.7689C42.3046 21.4261 39.967 18.067 36.866 15.6317H14.7657C11.6528 18.055 9.30325 21.4141 7.68121 25.7449C9.32711 24.7372 10.6033 23.7775 12.2969 23.7535C13.9547 23.7295 15.6721 24.9051 17.1749 25.265C18.6658 25.6249 19.0832 25.6489 20.8484 25.265C22.6016 24.8931 24.3071 23.6215 25.8695 23.6215Z" fill="#2F5E91"/>
<path d="M24.6765 11.1686H17.2222V14.6596H34.3968V11.1686H26.7994L25.6425 -0.0483398L24.6765 11.1686Z" fill="#2F5E91"/>
<path d="M42.6264 33.5546C42.2567 33.5546 42.4475 32.9908 42.4475 32.7389C42.8291 33.0388 42.9246 31.6472 42.9246 31.6472C42.9842 30.8914 43.0438 29.6437 43.0438 27.9282H44.32V33.4707H43.831V28.54H43.342C43.3301 29.0319 43.3778 33.5546 42.6264 33.5546ZM40.8135 31.3832H41.4814L41.1594 28.768H41.1475L40.8135 31.3832ZM40.2291 33.4707L41.0043 27.9282H41.553L42.2805 33.4707H41.7557L41.553 31.9231H40.742L40.5273 33.4707H40.2291ZM38.0942 33.4707V27.9282H38.5832V30.3515H39.3942V27.9282H39.8832V33.4707H39.3942V30.9514H38.5832V33.4707H38.0942ZM36.2933 31.3832H36.9612L36.6392 28.768H36.6272L36.2933 31.3832ZM35.7089 33.4707L36.4841 27.9282H37.0327L37.7603 33.4707H37.2355L37.0327 31.9231H36.2217L36.007 33.4707H35.7089ZM33.6694 33.4707V27.9282H34.1584V30.4955L34.3731 30.1236L35.0529 27.9162H35.3988L34.6951 30.0876L35.5658 33.4707H34.9456L34.3254 30.9753L34.1703 31.2273V33.4707H33.6694ZM32.2024 32.9548C32.9538 32.9548 32.9419 28.444 32.2024 28.444C31.4749 28.456 31.4629 32.9548 32.2024 32.9548ZM32.2024 33.5666C30.7235 33.5666 30.7354 27.8442 32.2024 27.8442C33.6813 27.8442 33.6932 33.5666 32.2024 33.5666ZM30.151 32.8588V28.54H29.5904C29.5785 29.9676 29.5904 31.4432 29.3161 32.8588H30.151ZM28.7913 32.8588H29.0299C29.3519 31.2633 29.3042 29.5477 29.3042 27.9282H30.6519V32.8588H30.9382L30.8547 34.9702H30.5804L30.4969 33.4827H29.2207L29.0776 34.9702H28.8271L28.7913 32.8588ZM27.5152 32.9548C28.2666 32.9548 28.2546 28.444 27.5152 28.444C26.7877 28.456 26.7757 32.9548 27.5152 32.9548ZM27.5152 33.5666C26.0363 33.5666 26.0482 27.8442 27.5152 27.8442C28.9941 27.8442 29.006 33.5666 27.5152 33.5666ZM25.2849 32.9188C25.8693 32.9188 25.8097 30.9034 25.3803 30.9034H25.0583V32.9188H25.2849ZM25.3564 30.3875C25.6308 30.3875 25.9528 28.48 25.0583 28.48V30.3875H25.3564ZM24.5693 27.9282C24.939 27.9282 25.4757 27.8442 25.7381 28.1321C26.2509 28.684 26.2271 30.0036 25.75 30.5795C26.4776 31.1313 26.3702 33.4707 25.2968 33.4707H24.5693V27.9282ZM23.2454 32.9188C23.8298 32.9188 23.7702 30.9034 23.3408 30.9034H23.0188V32.9188H23.2454ZM23.317 30.3875C23.5913 30.3875 23.9133 28.48 23.0188 28.48V30.3875H23.317ZM22.5298 27.9282C22.8995 27.9282 23.4362 27.8442 23.6986 28.1321C24.2115 28.684 24.1876 30.0036 23.7106 30.5795C24.4381 31.1313 24.3307 33.4707 23.2573 33.4707H22.5298V27.9282ZM22.0647 27.2204C21.7426 27.2204 21.7307 26.0327 22.0647 26.0327C22.3867 26.0447 22.3867 27.2204 22.0647 27.2204ZM21.3968 27.2204C21.0747 27.2204 21.0747 26.0327 21.3968 26.0327C21.7307 26.0447 21.7188 27.2204 21.3968 27.2204ZM21.4802 33.4707V27.9282H21.9692V33.4707H21.4802ZM19.6793 31.3832H20.3472L20.0252 28.768H20.0133L19.6793 31.3832ZM19.0949 33.4707L19.8701 27.9282H20.4188L21.1463 33.4707H20.6215L20.4188 31.9231H19.6077L19.3931 33.4707H19.0949ZM17.0554 33.5546C16.6857 33.5546 16.8765 32.9908 16.8765 32.7389C17.2582 33.0388 17.3536 31.6472 17.3536 31.6472C17.4132 30.8914 17.4729 29.6437 17.4729 27.9282H18.749V33.4707H18.26V28.54H17.771C17.7591 29.0319 17.8187 33.5546 17.0554 33.5546ZM15.5884 32.9548C16.3398 32.9548 16.3279 28.444 15.5884 28.444C14.8609 28.456 14.849 32.9548 15.5884 32.9548ZM15.5884 33.5666C14.1095 33.5666 14.1214 27.8442 15.5884 27.8442C17.0673 27.8442 17.0673 33.5666 15.5884 33.5666ZM12.4398 33.4707V27.9282H12.9288V30.4955L13.1434 30.1236L13.8233 27.9162H14.1691L13.4655 30.0876L14.3361 33.4707H13.704L13.0838 30.9753L12.9288 31.2273V33.4707H12.4398ZM10.0186 33.4707V27.9282H10.5076L10.4838 32.163H10.4957L11.426 27.9282H11.8792V33.4707H11.3902L11.4141 29.2718L10.4838 33.4707H10.0186ZM6.94153 33.4707L6.96538 27.9282H7.56172L8.21769 32.0191H8.22962L8.87366 27.9282H9.43422L9.45808 33.4707H8.96908L8.94522 29.2718L8.30118 33.4707H7.93145L7.28741 29.2718H7.27548L7.26355 33.4707H6.94153Z" fill="#00A3DE"/>
<path d="M11.2113 22.0139H11.4737V21.7499H11.2113V22.0139ZM10.1856 21.7499V22.0139H10.448V21.7499H10.1856ZM11.7241 21.486H11.4617V21.7499H11.7241V21.486ZM9.93512 21.486V21.7499H10.1975V21.486H9.93512ZM10.9608 21.7499V21.486H11.2232V21.2341H10.9608V20.9701H10.6984V21.2341H10.436V21.498H10.6984V21.7619H10.9608V21.7499ZM11.7241 22.2658H11.9865V22.0019H11.7241V22.2658ZM9.67273 22.2658H9.93512V22.0019H9.67273V22.2658ZM13.5251 22.2658H13.7875V22.0019H13.5251V22.2658ZM13.2627 22.0139H13.0122V21.7499H13.2627V22.0139ZM13.0122 21.7499H12.7618V21.486H13.0122V21.7499ZM13.5251 21.486V21.2341H13.2627V20.9701H13.0003V20.7062H12.7379V20.9701V21.2341V21.498H12.4874H12.2251H11.9627V21.7619H12.2251V22.0259H12.4874V22.2898H12.7498H13.0122H13.2746V22.0259H13.5251V21.7619V21.486ZM14.5508 21.7499H14.3003V21.486H14.5508V21.7499ZM14.2884 22.0139H14.0379V21.7499H14.2884V22.0139ZM15.0636 21.486H14.8012H14.5508V21.2341V20.9701V20.7062H14.2884V20.9701H14.026V21.2341H13.7636V21.498V21.7619V22.0259H14.0141V22.2898H14.2765H14.5388H14.8012V22.0259H15.0636V21.7619H15.326V21.498H15.0636V21.486ZM10.448 22.2658H10.6984V22.0259V22.0019H10.436V22.2658H10.448ZM10.9608 22.0259V22.2658H11.2232V22.0019H10.9608V22.0259ZM16.8646 22.0139H17.127V21.7499H16.8646V22.0139ZM15.8269 21.7499V22.0139H16.0893V21.7499H15.8269ZM17.3774 21.486H17.115V21.7499H17.3774V21.486ZM15.5765 21.486V21.7499H15.8389V21.486H15.5765ZM16.6022 21.7499V21.486H16.8646V21.2341H16.6022V20.9701H16.3398V21.2341H16.0774V21.498H16.3398V21.7619H16.6022V21.7499ZM17.3774 22.2658H17.6398V22.0019H17.3774V22.2658ZM15.3141 22.2658H15.5765V22.0019H15.3141V22.2658ZM19.1664 22.2658H19.4288V22.0019H19.1664V22.2658ZM18.916 22.0139H18.6655V21.7499H18.916V22.0139ZM18.6536 21.7499H18.4031V21.486H18.6536V21.7499ZM19.1664 21.486V21.2341H18.904V20.9701H18.6417V20.7062H18.3793V20.9701V21.2341V21.498H18.1288H17.8903H17.6279V21.7619H17.8903V22.0259H18.1527V22.2898H18.415H18.6774H18.9398V22.0259H19.1903V21.7619V21.486H19.1664ZM20.1921 21.7499H19.9417V21.486H20.1921V21.7499ZM19.9417 22.0139H19.6793V21.7499H19.9297V22.0139H19.9417ZM20.705 21.486H20.4426H20.1921V21.2341V20.9701V20.7062H19.9297V20.9701H19.6793V21.2341H19.4169V21.498V21.7619V22.0259H19.6674V22.2898H19.9297H20.1921H20.4545V22.0259H20.7169V21.7619H20.9793V21.498H20.705V21.486ZM16.0893 22.2658H16.3398V22.0259V22.0019H16.0774V22.2658H16.0893ZM16.6022 22.0259V22.2658H16.8646V22.0019H16.6022V22.0259ZM22.5059 22.0139H22.7683V21.7499H22.5059V22.0139ZM21.4802 21.7499V22.0139H21.7426V21.7499H21.4802ZM23.0188 21.486H22.7564V21.7499H23.0188V21.486ZM21.2178 21.486V21.7499H21.4802V21.486H21.2178ZM22.2435 21.7499V21.486H22.5059V21.2341H22.2435V20.9701H21.9811V21.2341H21.7188V21.498H21.9811V21.7619H22.2435V21.7499ZM23.0188 22.2658H23.2812V22.0019H23.0188V22.2658ZM20.9674 22.2658H21.2298V22.0019H20.9674V22.2658ZM24.8197 22.2658H25.0821V22.0019H24.8197V22.2658ZM24.5573 22.0139H24.3069V21.7499H24.5573V22.0139ZM24.3069 21.7499H24.0564V21.486H24.3069V21.7499ZM24.8197 21.486V21.2341H24.5573V20.9701H24.2949V20.7062H24.0325V20.9701V21.2341V21.498H23.7821H23.5197H23.2573V21.7619H23.5197V22.0259H23.7821V22.2898H24.0445H24.3069H24.5693V22.0259H24.8197V21.7619V21.486ZM25.8454 21.7499H25.595V21.486H25.8454V21.7499ZM25.583 22.0139H25.3326V21.7499H25.583V22.0139ZM26.3583 21.486H26.0959H25.8454V21.2341V20.9701V20.7062H25.583V20.9701H25.3206V21.2341H25.0582V21.498V21.7619V22.0259H25.3087V22.2898H25.5711H25.8335H26.0959V22.0259H26.3583V21.7619H26.6207V21.498H26.3583V21.486ZM21.7307 22.2658H21.9811V22.0259V22.0019H21.7188L21.7307 22.2658ZM22.2435 22.0259V22.2658H22.5059V22.0019H22.2435V22.0259ZM28.1473 22.0139H28.4097V21.7499H28.1473V22.0139ZM27.1216 21.7499V22.0139H27.384V21.7499H27.1216ZM28.6601 21.486H28.3977V21.7499H28.6601V21.486ZM26.8711 21.486V21.7499H27.1335V21.486H26.8711ZM27.8968 21.7499V21.486H28.1592V21.2341H27.8968V20.9701H27.6344V21.2341H27.372V21.498H27.6344V21.7619H27.8968V21.7499ZM28.6601 22.2658H28.9225V22.0019H28.6601V22.2658ZM26.6087 22.2658H26.8711V22.0019H26.6087V22.2658ZM30.4611 22.2658H30.7235V22.0019H30.4611V22.2658ZM30.1987 22.0139H29.9482V21.7499H30.1987V22.0139ZM29.9482 21.7499H29.6978V21.486H29.9482V21.7499ZM30.4611 21.486V21.2341H30.1987V20.9701H29.9363V20.7062H29.6739V20.9701V21.2341V21.498H29.4234H29.1611H28.8987V21.7619H29.1611V22.0259H29.4234V22.2898H29.6858H29.9482H30.2106V22.0259H30.4611V21.7619V21.486ZM31.4868 21.7499H31.2363V21.486H31.4868V21.7499ZM31.2244 22.0139H30.9739V21.7499H31.2244V22.0139ZM31.9996 21.486H31.7372H31.4868V21.2341V20.9701V20.7062H31.2244V20.9701H30.962V21.2341H30.6996V21.498V21.7619V22.0259H30.9501V22.2898H31.2125H31.4748H31.7372V22.0259H31.9996V21.7619H32.262V21.498H31.9996V21.486ZM27.384 22.2658H27.6344V22.0259V22.0019H27.372V22.2658H27.384ZM27.8968 22.0259V22.2658H28.1592V22.0019H27.8968V22.0259ZM33.8006 22.0139H34.063V21.7499H33.8006V22.0139ZM32.7749 21.7499V22.0139H33.0373V21.7499H32.7749ZM34.3134 21.486H34.051V21.7499H34.3134V21.486ZM32.5125 21.486V21.7499H32.7749V21.486H32.5125ZM33.5382 21.7499V21.486H33.8006V21.2341H33.5382V20.9701H33.2758V21.2341H33.0134V21.498H33.2758V21.7619H33.5382V21.7499ZM34.3134 22.2658H34.5758V22.0019H34.3134V22.2658ZM32.262 22.2658H32.5244V22.0019H32.262V22.2658ZM36.1024 22.2658H36.3648V22.0019H36.1024V22.2658ZM35.852 22.0139H35.6015V21.7499H35.852V22.0139ZM35.5896 21.7499H35.3391V21.486H35.5896V21.7499ZM36.1024 21.486V21.2341H35.84V20.9701H35.5777V20.7062H35.3153V20.9701V21.2341V21.498H35.0648H34.8263H34.5639V21.7619H34.8263V22.0259H35.0887V22.2898H35.351H35.6134H35.8758V22.0259H36.1263V21.7619V21.486H36.1024ZM37.1281 21.7499H36.8777V21.486H37.1281V21.7499ZM36.8777 22.0139H36.6153V21.7499H36.8657V22.0139H36.8777ZM37.641 21.486H37.3786H37.1281V21.2341V20.9701V20.7062H36.8657V20.9701H36.6153V21.2341H36.3529V21.498V21.7619V22.0259H36.6034V22.2898H36.8657H37.1281H37.3905V22.0259H37.6529V21.7619H37.9153V21.498H37.641V21.486ZM33.0253 22.2658H33.2758V22.0259V22.0019H33.0134V22.2658H33.0253ZM33.5382 22.0259V22.2658H33.8006V22.0019H33.5382V22.0259ZM39.4419 22.0139H39.7043V21.7499H39.4419V22.0139ZM38.4162 21.7499V22.0139H38.6786V21.7499H38.4162ZM39.9548 21.486H39.6924V21.7499H39.9548V21.486ZM38.1538 21.486V21.7499H38.4162V21.486H38.1538ZM39.1795 21.7499V21.486H39.4419V21.2341H39.1795V20.9701H38.9171V21.2341H38.6548V21.498H38.9171V21.7619H39.1795V21.7499ZM39.9548 22.2658H40.2172V22.0019H39.9548V22.2658ZM37.9034 22.2658H38.1658V22.0019H37.9034V22.2658ZM41.7557 22.2658H42.0181V22.0019H41.7557V22.2658ZM41.4933 22.0139H41.2429V21.7499H41.4933V22.0139ZM41.2429 21.7499H40.9924V21.486H41.2429V21.7499ZM41.7557 21.486V21.2341H41.4933V20.9701H41.2309V20.7062H40.9685V20.9701V21.2341V21.498H40.7181H40.4557H40.1933V21.7619H40.4557V22.0259H40.7181V22.2898H40.9805H41.2429H41.5053V22.0259H41.7557V21.7619V21.486ZM38.6667 22.2658H38.9171V22.0259V22.0019H38.6548V22.2658H38.6667ZM39.1795 22.0259V22.2658H39.4419V22.0019H39.1795V22.0259ZM9.93512 21.0901V21.2341H10.1975V20.9701H10.4599V20.7062H10.7223V20.4423V20.1784V19.9144C10.4003 20.3583 10.1379 20.7062 9.93512 21.0901ZM11.2113 19.9384H11.4617V20.2024H11.2113V19.9384ZM11.4737 20.2024H11.7241V20.4663H11.4737V20.2024ZM11.2113 19.9384H10.9608V20.2024V20.4663V20.7302H11.2232V20.9941H11.4856V21.2581H11.748V20.9941V20.7302V20.4663H11.9984H12.2608H12.5232V20.2024H12.2608V19.9384H11.9984V19.6745H11.7361H11.4737H11.2113V19.9384ZM11.2113 19.4226H11.4737H11.7361H11.9984V19.1587H12.2608V18.8947H12.5232V18.6308H12.2608H11.9984H11.7361V18.8947H11.4737V19.1587H11.2113V19.4226ZM14.2884 20.2024H14.026V19.9384H14.2884V20.2024ZM13.0122 20.2024V19.9384H13.2746V20.2024H13.0122ZM14.5508 20.4543H14.2884V20.1904H14.5508V20.4543ZM12.7498 20.4543V20.1904H13.0122V20.4543H12.7498ZM13.5251 20.2024H13.7875V20.4663H14.0498V20.7302H13.7875V20.9941H13.5251V20.7302H13.2627V20.4663H13.5251V20.2024ZM13.7755 18.9067H13.5131V18.6428H13.2508V18.3789H13.5131V18.1149H13.7755V18.3789H14.0379V18.6428H13.7755V18.9067ZM14.8012 19.6865V19.9504H14.5508V19.6865H14.2884V19.4226H14.5508V19.1587H14.8132V19.4226H15.0756V19.6865H14.8012ZM12.7498 19.1706V19.4346H13.0122V19.6985H12.7498V19.9624H12.4874V19.6985H12.2251V19.4346H12.4874V19.1706H12.7498ZM13.0122 18.9067H13.2746V19.1706H13.0122V18.9067ZM13.7755 19.4226V19.6745H14.0379V19.9384H13.7755V19.6865H13.5131V19.9384H13.2508V19.6745H13.5131V19.4226H13.2508V19.1587H13.5131V19.4106L13.7755 19.4226V19.1587H14.0379V19.4226H13.7755ZM14.0379 19.1706V18.9067H14.3003V19.1706H14.0379ZM12.7498 18.6548H13.0122V18.9187H12.7498V18.6548ZM14.2884 18.6548H14.5508V18.9187H14.2884V18.6548ZM16.6022 19.6865V19.9504H16.3398V19.6865H16.6022ZM16.0893 20.2024H15.8389V19.9384H16.0893V20.2024ZM15.8269 20.4543H15.5765V20.1904H15.8269V20.4543ZM16.3398 20.2024V19.9384H16.0893V19.6745H15.8269H15.5645H15.3022V19.9384H15.0398V20.2024H14.7774V20.4663H15.0398H15.3022H15.5526V20.7302V20.9941V21.2581H15.815V20.9941H16.0774V20.7302H16.3398V20.4663V20.2024ZM16.8646 19.9384H17.115V20.2024H16.8646V19.9384ZM17.115 20.2024H17.3655V20.4663H17.115V20.2024ZM16.8526 19.9384H16.6022V20.2024V20.4663V20.7302H16.8646V20.9941H17.127V21.2581H17.3893V20.9941V20.7302V20.4663H17.6398H17.9022H18.1646V20.2024H17.8903V19.9384H17.6279V19.6745H17.3655H17.1031H16.8407L16.8526 19.9384ZM16.8646 18.9067H17.115V19.1706H16.8646V18.9067ZM17.115 18.6548H17.3655V18.9187H17.115V18.6548ZM16.0893 19.1706H15.8389V18.9067H16.0893V19.1706ZM15.8269 18.9067H15.5765V18.6428H15.8269V18.9067ZM16.6022 19.4226V19.6865H16.8646V19.4226H17.115H17.3774H17.6398V19.1587H17.9022V18.8947H18.1646V18.6308H17.8903H17.6279H17.3774V18.3669V18.1029V17.875H17.115V18.1389H16.8526V18.4029H16.5903V18.6668V18.9307V19.1826H16.3398V18.9307V18.6668V18.4029H16.0774V18.1389H15.815V17.875H15.5526V18.1389V18.4029V18.6668H15.3022H15.0398H14.7774V18.9307H15.0398V19.1946H15.3022V19.4586H15.5645H15.8269H16.0774V19.7225H16.3398V19.4586H16.0893V19.2066H16.3398V19.4586H16.6022V19.2066H16.8526V19.4586H16.6022V19.4226ZM19.9417 20.2024H19.6793V19.9384H19.9417V20.2024ZM18.6536 20.2024V19.9384H18.916V20.2024H18.6536ZM20.1921 20.4543H19.9297V20.1904H20.1921V20.4543ZM18.4031 20.4543V20.1904H18.6655V20.4543H18.4031ZM19.1664 20.2024H19.4288V20.4663H19.6912V20.7302H19.4288V20.9941H19.1664V20.7302H18.904V20.4663H19.1664V20.2024ZM19.4288 18.9067H19.1664V18.6428H18.904V18.3789H19.1664V18.1149H19.4288V18.3789H19.6912V18.6428H19.4288V18.9067ZM20.4545 19.6865V19.9504H20.1921V19.6865H19.9297V19.4226H20.1921V19.1587H20.4545V19.4226H20.7169V19.6865H20.4545ZM18.4031 19.1706V19.4346H18.6655V19.6985H18.4031V19.9624H18.1407V19.6985H17.8903V19.4346H18.1527V19.1706H18.4031ZM18.6536 18.9067H18.916V19.1706H18.6536V18.9067ZM19.4288 19.4226V19.6745H19.6912V19.9384H19.4288V19.6865H19.1664V19.9384H18.904V19.6745H19.1664V19.4226H18.904V19.1587H19.1664V19.4106L19.4288 19.4226V19.1587H19.6912V19.4226H19.4288ZM19.6793 19.1706V18.9067H19.9417V19.1706H19.6793ZM18.4031 18.6548H18.6655V18.9187H18.4031V18.6548ZM19.9417 18.6548H20.2041V18.9187H19.9417V18.6548ZM22.2435 19.6865V19.9504H21.9811V19.6865H22.2435ZM21.7307 20.2024H21.4802V19.9384H21.7307V20.2024ZM21.4802 20.4543H21.2298V20.1904H21.4802V20.4543ZM21.9931 20.2024V19.9384H21.7426V19.6745H21.4802H21.2178H20.9554V19.9384H20.6931V20.2024H20.4307V20.4663H20.6931H20.9554H21.2059V20.7302V20.9941V21.2581H21.4683V20.9941H21.7307V20.7302H21.9931V20.4663V20.2024ZM22.5059 19.9384H22.7564V20.2024H22.5059V19.9384ZM22.7564 20.2024H23.0068V20.4663H22.7564V20.2024ZM22.5059 19.9384H22.2555V20.2024V20.4663V20.7302H22.5178V20.9941H22.7802V21.2581H23.0426V20.9941V20.7302V20.4663H23.2931H23.5555H23.8179V20.2024H23.5555V19.9384H23.2931V19.6745H23.0188H22.7564H22.494V19.9384H22.5059ZM22.5059 18.9067H22.7564V19.1706H22.5059V18.9067ZM22.7564 18.6548H23.0068V18.9187H22.7564V18.6548ZM21.7307 19.1706H21.4802V18.9067H21.7307V19.1706ZM21.4802 18.9067H21.2298V18.6428H21.4802V18.9067ZM22.2435 19.4226V19.6865H22.5059V19.4226H22.7564H23.0188H23.2812V19.1587H23.5435V18.8947H23.8059V18.6308H23.5435H23.2812H23.0188V18.3669V18.1029V17.875H22.7564V18.1389H22.494V18.4029H22.2316V18.6668V18.9307V19.1826H21.9692V18.9307V18.6668V18.4029H21.7068V18.1389H21.4444V17.875H21.1821V18.1389V18.4029V18.6668H20.9316H20.6692H20.4068V18.9307H20.6692V19.1946H20.9316V19.4586H21.194H21.4564H21.7068V19.7225H21.9692V19.4586H21.7188V19.2066H21.9692V19.4586H22.2435V19.2066H22.494V19.4586H22.2435V19.4226ZM25.583 20.2024H25.3206V19.9384H25.583V20.2024ZM24.3069 20.2024V19.9384H24.5693V20.2024H24.3069ZM25.8454 20.4543H25.583V20.1904H25.8454V20.4543ZM24.0445 20.4543V20.1904H24.3069V20.4543H24.0445ZM24.8197 20.2024H25.0821V20.4663H25.3445V20.7302H25.0821V20.9941H24.8197V20.7302H24.5573V20.4663H24.8197V20.2024ZM25.0702 18.9067H24.8078V18.6428H24.5454V18.3789H24.8078V18.1149H25.0702V18.3789H25.3326V18.6428H25.0702V18.9067ZM26.0959 19.6865V19.9504H25.8335V19.6865H25.5711V19.4226H25.8335V19.1587H26.0959V19.4226H26.3583V19.6865H26.0959ZM24.0445 19.1706V19.4346H24.3069V19.6985H24.0445V19.9624H23.7821V19.6985H23.5197V19.4346H23.7821V19.1706H24.0445ZM24.3069 18.9067H24.5693V19.1706H24.3069V18.9067ZM25.0702 19.4226V19.6745H25.3326V19.9384H25.0702V19.6865H24.8078V19.9384H24.5454V19.6745H24.8078V19.4226H24.5454V19.1587H24.8078V19.4106L25.0702 19.4226V19.1587H25.3326V19.4226H25.0702ZM25.3326 19.1706V18.9067H25.595V19.1706H25.3326ZM24.0445 18.6548H24.3069V18.9187H24.0445V18.6548ZM25.583 18.6548H25.8454V18.9187H25.583V18.6548ZM27.8968 19.6865V19.9504H27.6344V19.6865H27.8968ZM27.384 20.2024H27.1335V19.9384H27.384V20.2024ZM27.1216 20.4543H26.8711V20.1904H27.1216V20.4543ZM27.6344 20.2024V19.9384H27.384V19.6745H27.1216H26.8592H26.5968V19.9384H26.3583V20.2024H26.0959V20.4663H26.3583H26.6207H26.8711V20.7302V20.9941V21.2581H27.1335V20.9941H27.3959V20.7302H27.6583V20.4663V20.2024H27.6344ZM28.1473 19.9384H28.3977V20.2024H28.1473V19.9384ZM28.4097 20.2024H28.6601V20.4663H28.4097V20.2024ZM28.1473 19.9384H27.8968V20.2024V20.4663V20.7302H28.1592V20.9941H28.4216V21.2581H28.684V20.9941V20.7302V20.4663H28.9344H29.1968H29.4592V20.2024H29.1968V19.9384H28.9344V19.6745H28.6721H28.4097H28.1473V19.9384ZM28.1473 18.9067H28.3977V19.1706H28.1473V18.9067ZM28.4097 18.6548H28.6601V18.9187H28.4097V18.6548ZM27.384 19.1706H27.1335V18.9067H27.384V19.1706ZM27.1216 18.9067H26.8711V18.6428H27.1216V18.9067ZM27.8968 19.4226V19.6865H28.1592V19.4226H28.4097H28.6721H28.9344V19.1587H29.1968V18.8947H29.4592V18.6308H29.1968H28.9344H28.684V18.3669V18.1029V17.875H28.4216V18.1389H28.1473V18.4029H27.8849V18.6668V18.9307V19.1826H27.6225V18.9307V18.6668V18.4029H27.3601V18.1389H27.0977V17.875H26.8353V18.1389V18.4029V18.6668H26.5849H26.3583H26.0959V18.9307H26.3583V19.1946H26.6207V19.4586H26.883H27.1454H27.3959V19.7225H27.6583V19.4586H27.4078V19.2066H27.6583V19.4586H27.8968V19.2066H28.1473V19.4586H27.8968V19.4226ZM31.2244 20.2024H30.962V19.9384H31.2244V20.2024ZM29.9482 20.2024V19.9384H30.2106V20.2024H29.9482ZM31.4868 20.4543H31.2244V20.1904H31.4868V20.4543ZM29.6858 20.4543V20.1904H29.9482V20.4543H29.6858ZM30.4611 20.2024H30.7235V20.4663H30.9858V20.7302H30.7235V20.9941H30.4611V20.7302H30.1987V20.4663H30.4611V20.2024ZM30.7115 18.9067H30.4491V18.6428H30.1868V18.3789H30.4491V18.1149H30.7115V18.3789H30.9739V18.6428H30.7115V18.9067ZM31.7372 19.6865V19.9504H31.4868V19.6865H31.2244V19.4226H31.4868V19.1587H31.7492V19.4226H32.0115V19.6865H31.7372ZM29.6858 19.1706V19.4346H29.9482V19.6985H29.6858V19.9624H29.4234V19.6985H29.1611V19.4346H29.4234V19.1706H29.6858ZM29.9482 18.9067H30.2106V19.1706H29.9482V18.9067ZM30.7115 19.4226V19.6745H30.9739V19.9384H30.7115V19.6865H30.4491V19.9384H30.1868V19.6745H30.4491V19.4226H30.1868V19.1587H30.4491V19.4106L30.7115 19.4226V19.1587H30.9739V19.4226H30.7115ZM30.9739 19.1706V18.9067H31.2363V19.1706H30.9739ZM29.6858 18.6548H29.9482V18.9187H29.6858V18.6548ZM31.2244 18.6548H31.4868V18.9187H31.2244V18.6548ZM33.5382 19.6865V19.9504H33.2758V19.6865H33.5382ZM33.0253 20.2024H32.7749V19.9384H33.0253V20.2024ZM32.7749 20.4543H32.5244V20.1904H32.7749V20.4543ZM33.2877 20.2024V19.9384H33.0373V19.6745H32.7749H32.5125H32.2501V19.9384H31.9877V20.2024H31.7253V20.4663H31.9877H32.2501H32.5005V20.7302V20.9941V21.2581H32.7629V20.9941H33.0253V20.7302H33.2877V20.4663V20.2024ZM33.8006 19.9384H34.051V20.2024H33.8006V19.9384ZM34.051 20.2024H34.3015V20.4663H34.051V20.2024ZM33.8006 19.9384H33.5501V20.2024V20.4663V20.7302H33.8125V20.9941H34.0749V21.2581H34.3373V20.9941V20.7302V20.4663H34.5877H34.8501H35.1125V20.2024H34.8263V19.9384H34.5639V19.6745H34.3015H34.0391H33.7767V19.9384H33.8006ZM33.8006 18.9067H34.051V19.1706H33.8006V18.9067ZM34.051 18.6548H34.3015V18.9187H34.051V18.6548ZM33.0253 19.1706H32.7749V18.9067H33.0253V19.1706ZM32.7749 18.9067H32.5244V18.6428H32.7749V18.9067ZM33.5382 19.4226V19.6865H33.8006V19.4226H34.051H34.3134H34.5758V19.1587H34.8382V18.8947H35.1006V18.6308H34.8263H34.5639H34.3134V18.3669V18.1029V17.875H34.051V18.1389H33.7886V18.4029H33.5262V18.6668V18.9307V19.1826H33.2639V18.9307V18.6668V18.4029H33.0015V18.1389H32.7391V17.875H32.4767V18.1389V18.4029V18.6668H32.2262H31.9638H31.7015V18.9307H31.9638V19.1946H32.2262V19.4586H32.4886H32.751H33.0015V19.7225H33.2639V19.4586H33.0134V19.2066H33.2639V19.4586H33.5382V19.2066H33.7886V19.4586H33.5382V19.4226ZM36.8777 20.2024H36.6153V19.9384H36.8777V20.2024ZM35.5896 20.2024V19.9384H35.852V20.2024H35.5896ZM37.1281 20.4543H36.8657V20.1904H37.1281V20.4543ZM35.3391 20.4543V20.1904H35.6015V20.4543H35.3391ZM36.1024 20.2024H36.3648V20.4663H36.6272V20.7302H36.3648V20.9941H36.1024V20.7302H35.84V20.4663H36.1024V20.2024ZM36.3648 18.9067H36.1024V18.6428H35.84V18.3789H36.1024V18.1149H36.3648V18.3789H36.6272V18.6428H36.3648V18.9067ZM37.3905 19.6865V19.9504H37.1281V19.6865H36.8657V19.4226H37.1281V19.1587H37.3905V19.4226H37.6529V19.6865H37.3905ZM35.3391 19.1706V19.4346H35.6015V19.6985H35.3391V19.9624H35.0767V19.6985H34.8263V19.4346H35.0887V19.1706H35.3391ZM35.5896 18.9067H35.852V19.1706H35.5896V18.9067ZM36.3648 19.4226V19.6745H36.6272V19.9384H36.3648V19.6865H36.1024V19.9384H35.84V19.6745H36.1024V19.4226H35.84V19.1587H36.1024V19.4106L36.3648 19.4226V19.1587H36.6272V19.4226H36.3648ZM36.6153 19.1706V18.9067H36.8777V19.1706H36.6153ZM35.3391 18.6548H35.6015V18.9187H35.3391V18.6548ZM36.8777 18.6548H37.1401V18.9187H36.8777V18.6548ZM39.1795 19.6865V19.9504H38.9171V19.6865H39.1795ZM38.6667 20.2024H38.4162V19.9384H38.6667V20.2024ZM38.4162 20.4543H38.1658V20.1904H38.4162V20.4543ZM38.9291 20.2024V19.9384H38.6786V19.6745H38.4162H38.1538H37.8914V19.9384H37.6291V20.2024H37.3667V20.4663H37.6291H37.8914H38.1419V20.7302V20.9941V21.2581H38.4043V20.9941H38.6667V20.7302H38.9291V20.4663V20.2024ZM39.4419 19.9384H39.6924V20.2024H39.4419V19.9384ZM39.6924 20.2024H39.9428V20.4663H39.6924V20.2024ZM39.4419 19.9384H39.1915V20.2024V20.4663V20.7302H39.4538V20.9941H39.7162V21.2581H39.9786V20.9941V20.7302V20.4663H40.2291H40.4915H40.7539V20.2024H40.4915V19.9384H40.2291V19.6745H39.9548H39.6924H39.43V19.9384H39.4419ZM39.4419 18.9067H39.6924V19.1706H39.4419V18.9067ZM39.6924 18.6548H39.9428V18.9187H39.6924V18.6548ZM38.6667 19.1706H38.4162V18.9067H38.6667V19.1706ZM38.4162 18.9067H38.1658V18.6428H38.4162V18.9067ZM39.4896 18.1389H39.4419V18.4029H39.1795V18.6668V18.9307V19.1826H38.9171V18.9307V18.6668V18.4029H38.6548V18.1389H38.3924V17.875H38.13V18.1389V18.4029V18.6668H37.8795H37.6171H37.3547V18.9307H37.6171V19.1946H37.8795V19.4586H38.1419H38.4043H38.6548V19.7225H38.9171V19.4586H38.6667V19.2066H38.9171V19.4586H39.1795V19.2066H39.43V19.4586H39.1795V19.7225H39.4419V19.4586H39.6924H39.9548H40.2172V19.1946H40.3484L39.4896 18.1389ZM13.5251 16.8433H13.7875V17.1072H13.5251V16.8433ZM12.7498 17.6231V17.887V18.1509V18.4149H13.0122V18.1509H13.2746V17.875H13.537V17.6111V17.3472V17.0832H13.2746V17.3472H13.0241V17.6111L12.7498 17.6231ZM14.5508 17.6231H14.3003V17.3592H14.5508V17.6231ZM14.2884 17.3592H14.0379V17.0952H14.2884V17.3592ZM15.3141 17.6231V17.3592H15.0517V17.0952H14.7893V16.8313H14.5508H14.2884H14.026V17.0952H13.7755V17.3592V17.6231V17.887H14.0379V18.1509H14.3003V18.4149H14.5627V18.1509V17.875V17.6111H14.8132H15.0756H15.3141V17.6231ZM16.8646 17.1072H17.127V17.3711H16.8646V17.1072ZM15.8269 17.3592V17.0952H16.0893V17.3592H15.8269ZM17.3774 17.6231H17.115V17.3592H17.3774V17.6231ZM15.5884 17.6351V17.3711H15.8508V17.6351H15.5884ZM16.6022 17.3592V17.6231H16.8646V17.887H16.6022V18.1509H16.3398V17.875H16.0774V17.6111H16.3398V17.3472H16.6022V17.3592ZM17.3774 16.8433H17.6398V17.1072H17.3774V16.8433ZM15.3141 16.8433H15.5765V17.1072H15.3141V16.8433ZM19.1664 16.8433H19.4288V17.1072H19.1664V16.8433ZM18.916 17.3592H18.6655V17.0952H18.916V17.3592ZM18.6536 17.6231H18.4031V17.3592H18.6536V17.6231ZM19.1664 17.3592V17.0952H18.916V16.8313H18.6536H18.3912H18.1288V17.0952H17.8903V17.3592H17.6279V17.6231H17.8903H18.1527H18.4031V17.887V18.1509V18.4149H18.6655V18.1509H18.9279V17.875H19.1903V17.6111V17.3592H19.1664ZM20.1921 17.6231H19.9417V17.3592H20.1921V17.6231ZM19.9417 17.3592H19.6793V17.0952H19.9297V17.3592H19.9417ZM20.9674 17.6231V17.3592H20.705V17.0952H20.4426V16.8313H20.1802H19.9178H19.6793V17.0952H19.4288V17.3592V17.6231V17.887H19.6912V18.1509H19.9536V18.4149H20.216V18.1509V17.875V17.6111H20.4664H20.7288H20.9674V17.6231ZM16.0893 16.8433H16.3398V17.0832V17.1072H16.0774V16.8433H16.0893ZM16.6022 17.0832V16.8433H16.8646V17.1072H16.6022V17.0832ZM22.5059 17.1072H22.7683V17.3711H22.5059V17.1072ZM21.4802 17.3592V17.0952H21.7426V17.3592H21.4802ZM23.0188 17.6231H22.7564V17.3592H23.0188V17.6231ZM21.2178 17.6231V17.3592H21.4802V17.6231H21.2178ZM22.2435 17.3592V17.6231H22.5059V17.887H22.2435V18.1509H21.9811V17.875H21.7188V17.6111H21.9811V17.3472H22.2435V17.3592ZM23.0188 16.8433H23.2812V17.1072H23.0188V16.8433ZM20.9674 16.8433H21.2298V17.1072H20.9674V16.8433ZM24.8197 16.8433H25.0821V17.1072H24.8197V16.8433ZM24.5573 17.3592H24.3069V17.0952H24.5573V17.3592ZM24.3069 17.6231H24.0564V17.3592H24.3069V17.6231ZM24.8197 17.3592V17.0952H24.5693V16.8313H24.3069H24.0445H23.7821V17.0952H23.5197V17.3592H23.2573V17.6231H23.5197H23.7821H24.0325V17.887V18.1509V18.4149H24.2949V18.1509H24.5573V17.875H24.8197V17.6111V17.3592ZM25.8454 17.6231H25.595V17.3592H25.8454V17.6231ZM25.583 17.3592H25.3326V17.0952H25.583V17.3592ZM26.6087 17.6231V17.3592H26.3583V17.0952H26.0959V16.8313H25.8335H25.5711H25.3087V17.0952H25.0582V17.3592V17.6231V17.887H25.3206V18.1509H25.583V18.4149H25.8454V18.1509V17.875V17.6111H26.0959H26.3583H26.6087V17.6231ZM21.7307 16.8433H21.9811V17.0832V17.1072H21.7188L21.7307 16.8433ZM22.2435 17.0832V16.8433H22.5059V17.1072H22.2435V17.0832ZM28.1473 17.1072H28.4097V17.3711H28.1473V17.1072ZM27.1216 17.3592V17.0952H27.384V17.3592H27.1216ZM28.6601 17.6231H28.3977V17.3592H28.6601V17.6231ZM26.8711 17.6231V17.3592H27.1335V17.6231H26.8711ZM27.8968 17.3592V17.6231H28.1592V17.887H27.8968V18.1509H27.6344V17.875H27.372V17.6111H27.6344V17.3472H27.8968V17.3592ZM28.6601 16.8433H28.9225V17.1072H28.6601V16.8433ZM26.6087 16.8433H26.8711V17.1072H26.6087V16.8433ZM30.4611 16.8433H30.7235V17.1072H30.4611V16.8433ZM30.1987 17.3592H29.9482V17.0952H30.1987V17.3592ZM29.9482 17.6231H29.6978V17.3592H29.9482V17.6231ZM30.4611 17.3592V17.0952H30.2106V16.8313H29.9482H29.6858H29.4234V17.0952H29.1611V17.3592H28.8987V17.6231H29.1611H29.4234H29.6739V17.887V18.1509V18.4149H29.9363V18.1509H30.1987V17.875H30.4611V17.6111V17.3592ZM31.4868 17.6231H31.2363V17.3592H31.4868V17.6231ZM31.2244 17.3592H30.9739V17.0952H31.2244V17.3592ZM32.2501 17.6231V17.3592H31.9877V17.0952H31.7253V16.8313H31.4868H31.2244H30.962V17.0952H30.7115V17.3592V17.6231V17.887H30.9739V18.1509H31.2363V18.4149H31.4987V18.1509V17.875V17.6111H31.7492H32.0115H32.2501V17.6231ZM27.384 16.8433H27.6344V17.0832V17.1072H27.372V16.8433H27.384ZM27.8968 17.0832V16.8433H28.1592V17.1072H27.8968V17.0832ZM33.8006 17.1072H34.063V17.3711H33.8006V17.1072ZM32.7749 17.3592V17.0952H33.0373V17.3592H32.7749ZM34.3134 17.6231H34.051V17.3592H34.3134V17.6231ZM32.5125 17.6231V17.3592H32.7749V17.6231H32.5125ZM33.5382 17.3592V17.6231H33.8006V17.887H33.5382V18.1509H33.2758V17.875H33.0134V17.6111H33.2758V17.3472H33.5382V17.3592ZM34.3134 16.8433H34.5758V17.1072H34.3134V16.8433ZM32.262 16.8433H32.5244V17.1072H32.262V16.8433ZM36.1024 16.8433H36.3648V17.1072H36.1024V16.8433ZM35.852 17.3592H35.6015V17.0952H35.852V17.3592ZM35.5896 17.6231H35.3391V17.3592H35.5896V17.6231ZM36.1024 17.3592V17.0952H35.852V16.8313H35.5896H35.3272H35.0648V17.0952H34.8263V17.3592H34.5639V17.6231H34.8263H35.0887H35.3391V17.887V18.1509V18.4149H35.6015V18.1509H35.8639V17.875H36.1263V17.6111V17.3592H36.1024ZM37.1281 17.6231H36.8777V17.3592H37.1281V17.6231ZM36.8777 17.3592H36.6153V17.0952H36.8657V17.3592H36.8777ZM37.9034 17.6231V17.3592H37.641V17.0952H37.3786V16.8313H37.1162H36.8538H36.6153V17.0952H36.3648V17.3592V17.6231V17.887H36.6272V18.1509H36.8896V18.4149H37.152V18.1509V17.875V17.6111H37.4024H37.6648H37.9034V17.6231ZM33.0253 16.8433H33.2758V17.0832V17.1072H33.0134V16.8433H33.0253ZM33.5382 17.0832V16.8433H33.8006V17.1072H33.5382V17.0832ZM38.1538 17.6231V17.3592H38.4162V17.6231H38.1538ZM39.2511 17.875H39.1915V18.1389H38.9291V17.875H38.6667V17.6111H38.9291V17.5151C39.0603 17.6471 39.1676 17.779 39.2511 17.875ZM37.9034 16.8433H38.1658V17.1072H37.9034V16.8433Z" fill="#FEFEFE"/>
<path d="M13.3103 43.224H13.5727V42.9601H13.3103V43.224ZM13.0599 42.9721H13.3103V42.7082V42.4443V42.1803H13.0479V41.9164H12.7855V41.6525H12.5232V41.9164V42.1203C12.6663 42.3243 12.7975 42.5162 12.9167 42.6962H13.036L13.0599 42.9721ZM14.336 42.7082H14.0856V42.4443H14.336V42.7082ZM14.0856 42.9721H13.8351V42.7082H14.0856V42.9721ZM14.8489 42.4563H14.5865H14.336V42.1923V41.9284V41.6645H14.0736V41.9284H13.8112V42.1923H13.5489V42.4563V42.7202V42.9841H13.7993V43.248H14.0617H14.3241H14.5865V42.9841H14.8489V42.7082H15.1113V42.4443H14.8489V42.4563ZM16.6498 42.9721H16.9122V42.7082H16.6498V42.9721ZM15.6241 42.7082V42.9721H15.8865V42.7082H15.6241ZM17.1627 42.4563H16.9003V42.7202H17.1627V42.4563ZM15.3617 42.4563V42.7202H15.6241V42.4563H15.3617ZM16.3874 42.7082V42.4443H16.6498V42.1803H16.3874V41.9164H16.125V42.1803H15.8627V42.4443H16.125V42.7082H16.3874ZM17.1627 43.224H17.4251V42.9601H17.1627V43.224ZM15.1113 43.224H15.3737V42.9601H15.1113V43.224ZM18.9517 43.224H19.2141V42.9601H18.9517V43.224ZM18.7012 42.9721H18.4508V42.7082H18.7012V42.9721ZM18.4388 42.7082H18.1884V42.4443H18.4388V42.7082ZM18.9517 42.4563V42.1923H18.6893V41.9284H18.4269V41.6645H18.1645V41.9284V42.1923V42.4563H17.9141H17.6517H17.4131V42.7202H17.6755V42.9841H17.9379V43.248H18.2003H18.4627H18.7251V42.9841H18.9755V42.7082V42.4563H18.9517ZM19.9774 42.7082H19.7269V42.4443H19.9774V42.7082ZM19.7269 42.9721H19.4765V42.7082H19.7269V42.9721ZM20.4902 42.4563H20.2278H19.9774V42.1923V41.9284V41.6645H19.715V41.9284H19.4526V42.1923H19.1902V42.4563V42.7202V42.9841H19.4407V43.248H19.7031H19.9655H20.2278V42.9841H20.4902V42.7082H20.7526V42.4443H20.4902V42.4563ZM15.8746 43.224H16.125V42.9841V42.9601H15.8627V43.224H15.8746ZM16.3874 42.9961V43.236H16.6498V42.9721H16.3874V42.9961ZM22.2912 42.9721H22.5536V42.7082H22.2912V42.9721ZM21.2655 42.7082V42.9721H21.5279V42.7082H21.2655ZM22.804 42.4563H22.5416V42.7202H22.804V42.4563ZM21.015 42.4563V42.7202H21.2774V42.4563H21.015ZM22.0407 42.7082V42.4443H22.3031V42.1803H22.0407V41.9164H21.7783V42.1803H21.5159V42.4443H21.7783V42.7082H22.0407ZM22.804 43.224H23.0664V42.9601H22.804V43.224ZM20.7526 43.224H21.015V42.9601H20.7526V43.224ZM24.605 43.224H24.8674V42.9601H24.605V43.224ZM24.3426 42.9721H24.0921V42.7082H24.3426V42.9721ZM24.0921 42.7082H23.8417V42.4443H24.0921V42.7082ZM24.605 42.4563V42.1923H24.3426V41.9284H24.0921V41.6645H23.8297V41.9284V42.1923V42.4563H23.5793H23.3169H23.0545V42.7202H23.3169V42.9841H23.5793V43.248H23.8417H24.104H24.3664V42.9841H24.6169V42.7082V42.4563H24.605ZM25.6307 42.7082H25.3802V42.4443H25.6307V42.7082ZM25.3683 42.9721H25.1178V42.7082H25.3683V42.9721ZM26.1435 42.4563H25.8811H25.6307V42.1923V41.9284V41.6645H25.3683V41.9284H25.1059V42.1923H24.8435V42.4563V42.7202V42.9841H25.094V43.248H25.3564H25.6187H25.8811V42.9841H26.1435V42.7082H26.4059V42.4443H26.1435V42.4563ZM21.5279 43.224H21.7783V42.9841V42.9601H21.5159V43.224H21.5279ZM22.0407 42.9961V43.236H22.3031V42.9721H22.0407V42.9961ZM27.9325 42.9721H28.1949V42.7082H27.9325V42.9721ZM26.9068 42.7082V42.9721H27.1692V42.7082H26.9068ZM28.4454 42.4563H28.183V42.7202H28.4454V42.4563ZM26.6564 42.4563V42.7202H26.9188V42.4563H26.6564ZM27.6821 42.7082V42.4443H27.9445V42.1803H27.6821V41.9164H27.4197V42.1803H27.1573V42.4443H27.4197V42.7082H27.6821ZM28.4454 43.224H28.7078V42.9601H28.4454V43.224ZM26.394 43.224H26.6564V42.9601H26.394V43.224ZM30.2463 43.224H30.5087V42.9601H30.2463V43.224ZM29.9959 42.9721H29.7454V42.7082H29.9959V42.9721ZM29.7335 42.7082H29.483V42.4443H29.7335V42.7082ZM30.2463 42.4563V42.1923H29.9839V41.9284H29.7215V41.6645H29.4592V41.9284V42.1923V42.4563H29.2206H28.9582H28.6958V42.7202H28.9582V42.9841H29.2206V43.248H29.483H29.7454H30.0078V42.9841H30.2583V42.7082V42.4563H30.2463ZM31.272 42.7082H31.0216V42.4443H31.272V42.7082ZM31.0216 42.9721H30.7711V42.7082H31.0216V42.9721ZM31.7849 42.4563H31.5225H31.272V42.1923V41.9284V41.6645H31.0096V41.9284H30.7472V42.1923H30.4849V42.4563V42.7202V42.9841H30.7353V43.248H30.9977H31.2601H31.5225V42.9841H31.7849V42.7082H32.0473V42.4443H31.7849V42.4563ZM27.1692 43.224H27.4197V42.9841V42.9601H27.1573V43.224H27.1692ZM27.6821 42.9961V43.236H27.9445V42.9721H27.6821V42.9961ZM33.5858 42.9721H33.8482V42.7082H33.5858V42.9721ZM32.5601 42.7082V42.9721H32.8225V42.7082H32.5601ZM34.0987 42.4563H33.8363V42.7202H34.0987V42.4563ZM32.2977 42.4563V42.7202H32.5601V42.4563H32.2977ZM33.3234 42.7082V42.4443H33.5858V42.1803H33.3234V41.9164H33.061V42.1803H32.7987V42.4443H33.061V42.7082H33.3234ZM34.0987 43.224H34.3611V42.9601H34.0987V43.224ZM32.0473 43.224H32.3097V42.9601H32.0473V43.224ZM35.8877 43.224H36.1501V42.9601H35.8877V43.224ZM35.6372 42.9721H35.3868V42.7082H35.6372V42.9721ZM35.3748 42.7082H35.1244V42.4443H35.3748V42.7082ZM35.8877 42.4563V42.1923H35.6253V41.9284H35.3629V41.6645H35.1005V41.9284V42.1923V42.4563H34.8501H34.5877H34.3491V42.7202H34.6115V42.9841H34.8739V43.248H35.1363H35.3987H35.6611V42.9841H35.9115V42.7082V42.4563H35.8877ZM36.9134 42.7082H36.6629V42.4443H36.9134V42.7082ZM36.6629 42.9721H36.4125V42.7082H36.6629V42.9721ZM37.4382 42.4563H37.1758H36.9253V42.1923V41.9284V41.6645H36.6629V41.9284H36.4005V42.1923H36.1381V42.4563V42.7202V42.9841H36.3886V43.248H36.651H36.9134H37.1758V42.9841H37.4382V42.7082H37.7006V42.4443H37.4382V42.4563ZM32.8106 43.224H33.061V42.9841V42.9601H32.7987V43.224H32.8106ZM33.3234 42.9961V43.236H33.5858V42.9721H33.3234V42.9961ZM38.2015 42.7082V42.9721H38.4639V42.7082H38.2015ZM37.951 42.4563V42.7202H38.2134V42.4563H37.951ZM38.7143 42.5642C38.8097 42.3963 38.8932 42.2643 38.9767 42.1443V41.9404H38.7143V42.2043H38.4519V42.4683H38.7143V42.5642ZM37.6886 43.224H37.951V42.9601H37.6886V43.224ZM38.4758 42.9721H38.4519V43.0081L38.4758 42.9721ZM11.3782 40.6448C11.6644 40.9807 11.8791 41.2446 12.0103 41.4245H12.0222H12.2846V41.1606H12.0222V40.9087H11.7598V40.6448H11.4975H11.3782ZM10.9965 39.877H11.247V40.1409H10.9965V39.877ZM11.2589 39.613H11.5094V39.877H11.2589V39.613ZM10.925 40.1289H11.0085V40.2129L10.925 40.1289ZM11.1516 40.3928H11.2589H11.5213H11.7837V40.1289H12.0461V39.865H12.3085V39.601H12.0461H11.7837H11.5332V39.3371V39.0732V38.8093H11.2708V39.0732H11.0085V39.3371H10.7461V39.601V39.865V39.937L11.1516 40.3928ZM10.4837 39.673V39.613V39.3491H10.2213V39.0852H9.9589V38.8213H9.69652V38.9172L10.4837 39.673ZM14.0856 41.1606H13.8232V40.9087H14.0856V41.1606ZM12.7975 41.1606V40.9087H13.0599V41.1726H12.7975V41.1606ZM14.336 41.4245H14.0736V41.1606H14.336V41.4245ZM12.5351 41.4245V41.1606H12.7975V41.4245H12.5351ZM13.3103 41.1606H13.5727V41.4245H13.8351V41.6885H13.5727V41.9524H13.3103V41.6885H13.0479V41.4245H13.3103V41.1606ZM13.5727 39.877H13.3103V39.613H13.0479V39.3491H13.3103V39.0852H13.5727V39.3491H13.8351V39.613H13.5727V39.877ZM14.5984 40.6448V40.9087H14.336V40.6448H14.0736V40.3808H14.336V40.1169H14.5984V40.3808H14.8608V40.6448H14.5984ZM12.547 40.1289V40.3928H12.8094V40.6568H12.547V40.9207H12.2846V40.6568H12.0222V40.3928H12.2846V40.1289H12.547ZM12.7975 39.877H13.0599V40.1409H12.7975V39.877ZM13.5727 40.3928V40.6448H13.8351V40.9087H13.5727V40.6568H13.3103V40.9087H13.0479V40.6448H13.3103V40.3928H13.0479V40.1289H13.3103V40.3808L13.5727 40.3928V40.1289H13.8351V40.3928H13.5727ZM13.8232 40.1289V39.865H14.0856V40.1289H13.8232ZM12.5351 39.613H12.7975V39.877H12.5351V39.613ZM14.0856 39.613H14.348V39.877H14.0856V39.613ZM16.3874 40.6448V40.9087H16.125V40.6448H16.3874ZM15.8746 41.1606H15.6241V40.9087H15.8746V41.1606ZM15.6241 41.4245H15.3737V41.1606H15.6241V41.4245ZM16.137 41.1606V40.9087H15.8865V40.6448H15.6241H15.3617H15.0993V40.9087H14.8369V41.1726H14.5746V41.4365H14.8369H15.0993H15.3498V41.7005V41.9644V42.2283H15.6122V41.9644H15.8746V41.7005H16.137V41.4365V41.1606ZM16.6498 40.9087H16.9003V41.1726H16.6498V40.9087ZM16.9003 41.1606H17.1507V41.4245H16.9003V41.1606ZM16.6498 40.9087H16.3994V41.1726V41.4365V41.7005H16.6617V41.9644H16.9241V42.2283H17.1865V41.9644V41.7005V41.4365H17.437H17.6994H17.9618V41.1726H17.6994V40.9087H17.4131V40.6448H17.1507H16.8884H16.626L16.6498 40.9087ZM16.6498 39.877H16.9003V40.1409H16.6498V39.877ZM16.9003 39.613H17.1507V39.877H16.9003V39.613ZM15.8746 40.1289H15.6241V39.865H15.8746V40.1289ZM15.6241 39.877H15.3737V39.613H15.6241V39.877ZM16.3874 40.3928V40.6568H16.6498V40.3928H16.9003H17.1627H17.4251V40.1289H17.6874V39.865H17.9498V39.601H17.6874H17.4131H17.1627V39.3371V39.0732V38.8093H16.9003V39.0732H16.6379V39.3371H16.3755V39.601V39.865V40.1169H16.1131V39.865V39.601V39.3371H15.8507V39.0732H15.6241V38.8093H15.3617V39.0732V39.3371V39.601H15.1113H14.8489H14.5865V39.865H14.8489V40.1289H15.1113V40.3928H15.3737H15.636H15.8865V40.6568H16.1489V40.3928H15.8984V40.1409H16.1489V40.3928H16.3874V40.1409H16.6379V40.3928H16.3874ZM19.7269 41.1606H19.4645V40.9087H19.7269V41.1606ZM18.4388 41.1606V40.9087H18.7012V41.1726H18.4388V41.1606ZM19.9774 41.4245H19.715V41.1606H19.9774V41.4245ZM18.1884 41.4245V41.1606H18.4508V41.4245H18.1884ZM18.9517 41.1606H19.2141V41.4245H19.4765V41.6885H19.2141V41.9524H18.9517V41.6885H18.6893V41.4245H18.9517V41.1606ZM19.2141 39.877H18.9517V39.613H18.6893V39.3491H18.9517V39.0852H19.2141V39.3491H19.4765V39.613H19.2141V39.877ZM20.2398 40.6448V40.9087H19.9774V40.6448H19.715V40.3808H19.9774V40.1169H20.2398V40.3808H20.5022V40.6448H20.2398ZM18.1884 40.1289V40.3928H18.4508V40.6568H18.1884V40.9207H17.926V40.6568H17.6636V40.3928H17.926V40.1289H18.1884ZM18.4388 39.877H18.7012V40.1409H18.4388V39.877ZM19.2141 40.3928V40.6448H19.4765V40.9087H19.2141V40.6568H18.9517V40.9087H18.6893V40.6448H18.9517V40.3928H18.6893V40.1289H18.9517V40.3808L19.2141 40.3928V40.1289H19.4765V40.3928H19.2141ZM19.4645 40.1289V39.865H19.7269V40.1289H19.4645ZM18.1884 39.613H18.4508V39.877H18.1884V39.613ZM19.7269 39.613H19.9893V39.877H19.7269V39.613ZM22.0407 40.6448V40.9087H21.7783V40.6448H22.0407ZM21.5279 41.1606H21.2774V40.9087H21.5279V41.1606ZM21.2655 41.4245H21.015V41.1606H21.2655V41.4245ZM21.7783 41.1606V40.9087H21.5279V40.6448H21.2655H21.0031H20.7526V40.9087H20.4902V41.1726H20.2278V41.4365H20.4902H20.7526H21.0031V41.7005V41.9644V42.2283H21.2655V41.9644H21.5279V41.7005H21.7903V41.4365V41.1606H21.7783ZM22.2912 40.9087H22.5416V41.1726H22.2912V40.9087ZM22.5536 41.1606H22.804V41.4245H22.5536V41.1606ZM22.2912 40.9087H22.0407V41.1726V41.4365V41.7005H22.3031V41.9644H22.5655V42.2283H22.8279V41.9644V41.7005V41.4365H23.0783H23.3407H23.6031V41.1726H23.3407V40.9087H23.0783V40.6448H22.816H22.5536H22.2912V40.9087ZM22.2912 39.877H22.5416V40.1409H22.2912V39.877ZM22.5536 39.613H22.804V39.877H22.5536V39.613ZM21.5279 40.1289H21.2774V39.865H21.5279V40.1289ZM21.2655 39.877H21.015V39.613H21.2655V39.877ZM22.0407 40.3928V40.6568H22.3031V40.3928H22.5536H22.816H23.0783V40.1289H23.3407V39.865H23.6031V39.601H23.3407H23.0783H22.8279V39.3371V39.0732V38.8093H22.5655V39.0732H22.3031V39.3371H22.0407V39.601V39.865V40.1169H21.7783V39.865V39.601V39.3371H21.5159V39.0732H21.2535V38.8093H20.9912V39.0732V39.3371V39.601H20.7526H20.4902H20.2278V39.865H20.4902V40.1289H20.7526V40.3928H21.015H21.2774H21.5279V40.6568H21.7903V40.3928H21.5398V40.1409H21.7903V40.3928H22.0407V40.1409H22.2912V40.3928H22.0407ZM25.3683 41.1606H25.1059V40.9087H25.3683V41.1606ZM24.0921 41.1606V40.9087H24.3545V41.1726H24.0921V41.1606ZM25.6307 41.4245H25.3683V41.1606H25.6307V41.4245ZM23.8297 41.4245V41.1606H24.0921V41.4245H23.8297ZM24.605 41.1606H24.8674V41.4245H25.1297V41.6885H24.8674V41.9524H24.605V41.6885H24.3426V41.4245H24.605V41.1606ZM24.8554 39.877H24.593V39.613H24.3307V39.3491H24.593V39.0852H24.8554V39.3491H25.1178V39.613H24.8554V39.877ZM25.8811 40.6448V40.9087H25.6187V40.6448H25.3564V40.3808H25.6187V40.1169H25.8811V40.3808H26.1435V40.6448H25.8811ZM23.8297 40.1289V40.3928H24.0921V40.6568H23.8297V40.9207H23.5673V40.6568H23.3049V40.3928H23.5673V40.1289H23.8297ZM24.0921 39.877H24.3545V40.1409H24.0921V39.877ZM24.8554 40.3928V40.6448H25.1178V40.9087H24.8554V40.6568H24.593V40.9087H24.3307V40.6448H24.593V40.3928H24.3307V40.1289H24.593V40.3808L24.8554 40.3928V40.1289H25.1178V40.3928H24.8554ZM25.1178 40.1289V39.865H25.3802V40.1289H25.1178ZM23.8297 39.613H24.0921V39.877H23.8297V39.613ZM25.3683 39.613H25.6307V39.877H25.3683V39.613ZM27.6821 40.6448V40.9087H27.4197V40.6448H27.6821ZM27.1692 41.1606H26.9188V40.9087H27.1692V41.1606ZM26.9068 41.4245H26.6564V41.1606H26.9068V41.4245ZM27.4197 41.1606V40.9087H27.1692V40.6448H26.9068H26.6444H26.3821V40.9087H26.1197V41.1726H25.8811V41.4365H26.1435H26.4059H26.6564V41.7005V41.9644V42.2283H26.9188V41.9644H27.1811V41.7005H27.4435V41.4365V41.1606H27.4197ZM27.9325 40.9087H28.183V41.1726H27.9325V40.9087ZM28.1949 41.1606H28.4454V41.4245H28.1949V41.1606ZM27.9325 40.9087H27.6821V41.1726V41.4365V41.7005H27.9445V41.9644H28.2068V42.2283H28.4692V41.9644V41.7005V41.4365H28.7197H28.9821H29.2445V41.1726H28.9821V40.9087H28.7197V40.6448H28.4573H28.1949H27.9325V40.9087ZM27.9325 39.877H28.183V40.1409H27.9325V39.877ZM28.1949 39.613H28.4454V39.877H28.1949V39.613ZM27.1692 40.1289H26.9188V39.865H27.1692V40.1289ZM26.9068 39.877H26.6564V39.613H26.9068V39.877ZM27.6821 40.3928V40.6568H27.9445V40.3928H28.1949H28.4573H28.7197V40.1289H28.9821V39.865H29.2445V39.601H28.9821H28.7197H28.4692V39.3371V39.0732V38.8093H28.2068V39.0732H27.9445V39.3371H27.6821V39.601V39.865V40.1169H27.4197V39.865V39.601V39.3371H27.1573V39.0732H26.8949V38.8093H26.6325V39.0732V39.3371V39.601H26.3821H26.1197H25.8811V39.865H26.1435V40.1289H26.4059V40.3928H26.6683H26.9307H27.1811V40.6568H27.4435V40.3928H27.1931V40.1409H27.4435V40.3928H27.6821V40.1409H27.9325V40.3928H27.6821ZM31.0216 41.1606H30.7592V40.9087H31.0216V41.1606ZM29.7335 41.1606V40.9087H29.9959V41.1726H29.7335V41.1606ZM31.272 41.4245H31.0096V41.1606H31.272V41.4245ZM29.483 41.4245V41.1606H29.7454V41.4245H29.483ZM30.2463 41.1606H30.5087V41.4245H30.7711V41.6885H30.5087V41.9524H30.2463V41.6885H29.9839V41.4245H30.2463V41.1606ZM30.5087 39.877H30.2463V39.613H29.9839V39.3491H30.2463V39.0852H30.5087V39.3491H30.7711V39.613H30.5087V39.877ZM31.5344 40.6448V40.9087H31.272V40.6448H31.0096V40.3808H31.272V40.1169H31.5344V40.3808H31.7968V40.6448H31.5344ZM29.483 40.1289V40.3928H29.7454V40.6568H29.483V40.9207H29.2206V40.6568H28.9582V40.3928H29.2206V40.1289H29.483ZM29.7335 39.877H29.9959V40.1409H29.7335V39.877ZM30.5087 40.3928V40.6448H30.7711V40.9087H30.5087V40.6568H30.2463V40.9087H29.9839V40.6448H30.2463V40.3928H29.9839V40.1289H30.2463V40.3808L30.5087 40.3928V40.1289H30.7711V40.3928H30.5087ZM30.7592 40.1289V39.865H31.0216V40.1289H30.7592ZM29.483 39.613H29.7454V39.877H29.483V39.613ZM31.0216 39.613H31.284V39.877H31.0216V39.613ZM33.3234 40.6448V40.9087H33.061V40.6448H33.3234ZM32.8106 41.1606H32.5601V40.9087H32.8106V41.1606ZM32.5601 41.4245H32.3097V41.1606H32.5601V41.4245ZM33.073 41.1606V40.9087H32.8225V40.6448H32.5601H32.2977H32.0353V40.9087H31.7729V41.1726H31.5106V41.4365H31.7729H32.0353H32.2858V41.7005V41.9644V42.2283H32.5482V41.9644H32.8106V41.7005H33.073V41.4365V41.1606ZM33.5858 40.9087H33.8363V41.1726H33.5858V40.9087ZM33.8363 41.1606H34.0867V41.4245H33.8363V41.1606ZM33.5858 40.9087H33.3354V41.1726V41.4365V41.7005H33.5977V41.9644H33.8601V42.2283H34.1225V41.9644V41.7005V41.4365H34.373H34.6354H34.8978V41.1726H34.6354V40.9087H34.3491V40.6448H34.0867H33.8244H33.562V40.9087H33.5858ZM33.5858 39.877H33.8363V40.1409H33.5858V39.877ZM33.8363 39.613H34.0867V39.877H33.8363V39.613ZM32.8106 40.1289H32.5601V39.865H32.8106V40.1289ZM32.5601 39.877H32.3097V39.613H32.5601V39.877ZM33.3234 40.3928V40.6568H33.5858V40.3928H33.8363H34.0987H34.3611V40.1289H34.6234V39.865H34.8858V39.601H34.6234H34.3491H34.0987V39.3371V39.0732V38.8093H33.8363V39.0732H33.5739V39.3371H33.3115V39.601V39.865V40.1169H33.0491V39.865V39.601V39.3371H32.7867V39.0732H32.5601V38.8093H32.2977V39.0732V39.3371V39.601H32.0473H31.7849H31.5225V39.865H31.7849V40.1289H32.0473V40.3928H32.3097H32.572H32.8225V40.6568H33.0849V40.3928H32.8344V40.1409H33.0849V40.3928H33.3234V40.1409H33.5739V40.3928H33.3234ZM36.6629 41.1606H36.4005V40.9087H36.6629V41.1606ZM35.3748 41.1606V40.9087H35.6372V41.1726H35.3748V41.1606ZM36.9134 41.4245H36.651V41.1606H36.9134V41.4245ZM35.1244 41.4245V41.1606H35.3868V41.4245H35.1244ZM35.8877 41.1606H36.1501V41.4245H36.4125V41.6885H36.1501V41.9524H35.8877V41.6885H35.6253V41.4245H35.8877V41.1606ZM36.1501 39.877H35.8877V39.613H35.6253V39.3491H35.8877V39.0852H36.1501V39.3491H36.4125V39.613H36.1501V39.877ZM37.1758 40.6448V40.9087H36.9134V40.6448H36.651V40.3808H36.9134V40.1169H37.1758V40.3808H37.4382V40.6448H37.1758ZM35.1244 40.1289V40.3928H35.3868V40.6568H35.1244V40.9207H34.862V40.6568H34.5996V40.3928H34.862V40.1289H35.1244ZM35.3748 39.877H35.6372V40.1409H35.3748V39.877ZM36.1501 40.3928V40.6448H36.4125V40.9087H36.1501V40.6568H35.8877V40.9087H35.6253V40.6448H35.8877V40.3928H35.6253V40.1289H35.8877V40.3808L36.1501 40.3928V40.1289H36.4125V40.3928H36.1501ZM36.4005 40.1289V39.865H36.6629V40.1289H36.4005ZM35.1244 39.613H35.3868V39.877H35.1244V39.613ZM36.6629 39.613H36.9253V39.877H36.6629V39.613ZM38.9767 40.6448V40.9087H38.7143V40.6448H38.9767ZM38.4639 41.1606H38.2134V40.9087H38.4639V41.1606ZM38.2015 41.4245H37.951V41.1606H38.2015V41.4245ZM38.7143 41.1606V40.9087H38.4639V40.6448H38.2015H37.9391H37.6886V40.9087H37.4262V41.1726H37.1638V41.4365H37.4262H37.6886H37.9391V41.7005V41.9644V42.2283H38.2015V41.9644H38.4639V41.7005H38.7263V41.4365V41.1606H38.7143ZM39.2272 40.9087H39.4776V41.1726H39.2272V40.9087ZM39.4896 41.3646V41.1606H39.6327L39.4896 41.3646ZM40.0024 40.6688V40.6448H39.74H39.4776H39.2152V40.9087H38.9648V41.1726V41.4365V41.7005H39.2272V41.7604L40.0024 40.6688ZM39.2272 39.877H39.4776V40.1409H39.2272V39.877ZM39.4896 39.613H39.74V39.877H39.4896V39.613ZM38.4639 40.1289H38.2134V39.865H38.4639V40.1289ZM38.2015 39.877H37.951V39.613H38.2015V39.877ZM38.9767 40.3928V40.6568H39.2391V40.3928H39.4896H39.752H40.0143V40.1289H40.2767V39.865H40.5391V39.601H40.2767H40.0143H39.7639V39.3371V39.0732V38.8093H39.5015V39.0732H39.2391V39.3371H38.9767V39.601V39.865V40.1169H38.7143V39.865V39.601V39.3371H38.4519V39.0732H38.1896V38.8093H37.9272V39.0732V39.3371V39.601H37.6886H37.4262H37.1638V39.865H37.4262V40.1289H37.6886V40.3928H37.951H38.2134H38.4639V40.6568H38.7263V40.3928H38.4758V40.1409H38.7263V40.3928H38.9767V40.1409H39.2272V40.3928H38.9767ZM11.0085 38.0775H11.2708V38.3414H11.0085V38.0775ZM9.97083 38.3294V38.0655L10.2332 38.0775L10.2213 38.3294H9.97083ZM11.5094 38.5813L11.2589 38.5933V38.3294L11.5094 38.3174V38.5813ZM9.7323 38.5933L9.72037 38.3294H9.98276L9.99468 38.5933H9.7323ZM10.7461 38.3294V38.5933H11.0085V38.8573H10.7461V39.1212H10.4837V38.8573H10.2213V38.5933H10.4837V38.3294H10.7461ZM11.5094 37.8135H11.7718V38.0775H11.5094V37.8135ZM9.45798 37.8135H9.72037V38.0775H9.45798V37.8135ZM13.3103 37.8135H13.5727V38.0775H13.3103V37.8135ZM13.0599 38.3294H12.8094V38.0655H13.0599V38.3294ZM12.7975 38.5813H12.547V38.3174H12.7975V38.5813ZM13.3103 38.3294V38.0655H13.0599V37.8015H12.7975H12.5351H12.2846V38.0655H12.0222V38.3294H11.7598V38.5933H12.0222H12.2846H12.5351V38.8573V39.1212V39.3851H12.7975V39.1212H13.0599V38.8573H13.3223V38.5933V38.3294H13.3103ZM14.336 38.5813H14.0856V38.3174H14.336V38.5813ZM14.0856 38.3294H13.8351V38.0655H14.0856V38.3294ZM15.1113 38.5813V38.3174H14.8489V38.0535H14.5865V37.7896H14.3241H14.0617H13.7993V38.0535H13.5489V38.3174V38.5813V38.8453H13.8112V39.1092H14.0736V39.3731H14.336V39.1092V38.8453V38.5813H14.5865H14.8489H15.1113ZM10.2451 37.8135L10.4956 37.8015V38.0415V38.0655L10.2451 38.0775V37.8135ZM10.758 38.0535V37.8135H11.0204V38.0775H10.758V38.0535ZM16.6498 38.0655H16.9122V38.3294H16.6498V38.0655ZM15.6241 38.3294V38.0655H15.8865V38.3294H15.6241ZM17.1627 38.5813H16.9003V38.3174H17.1627V38.5813ZM15.3737 38.5933V38.3294H15.636V38.5933H15.3737ZM16.3874 38.3294V38.5933H16.6498V38.8573H16.3874V39.1212H16.125V38.8573H15.8627V38.5933H16.125V38.3294H16.3874ZM17.1627 37.8135H17.4251V38.0775H17.1627V37.8135ZM15.1113 37.8135H15.3737V38.0775H15.1113V37.8135ZM18.9517 37.8135H19.2141V38.0775H18.9517V37.8135ZM18.7012 38.3294H18.4508V38.0655H18.7012V38.3294ZM18.4388 38.5813H18.1884V38.3174H18.4388V38.5813ZM18.9517 38.3294V38.0655H18.7012V37.8015H18.4388H18.1764H17.9141V38.0655H17.6517V38.3294H17.4131V38.5933H17.6755H17.9379H18.1884V38.8573V39.1212V39.3851H18.4508V39.1212H18.7131V38.8573H18.9755V38.5933V38.3294H18.9517ZM19.9774 38.5813H19.7269V38.3174H19.9774V38.5813ZM19.7269 38.3294H19.4765V38.0655H19.7269V38.3294ZM20.7526 38.5813V38.3174H20.4902V38.0535H20.2278V37.7896H19.9655H19.7031H19.4407V38.0535H19.1902V38.3174V38.5813V38.8453H19.4526V39.1092H19.715V39.3731H19.9774V39.1092V38.8453V38.5813H20.2278H20.4902H20.7526ZM15.8746 37.8135H16.125V38.0535V38.0775H15.8627V37.8135H15.8746ZM16.3874 38.0535V37.8135H16.6498V38.0775H16.3874V38.0535ZM22.2912 38.0655H22.5536V38.3294H22.2912V38.0655ZM21.2655 38.3294V38.0655H21.5279V38.3294H21.2655ZM22.804 38.5813H22.5416V38.3174H22.804V38.5813ZM21.015 38.5813V38.3174H21.2774V38.5813H21.015ZM22.0407 38.3294V38.5933H22.3031V38.8573H22.0407V39.1212H21.7783V38.8573H21.5159V38.5933H21.7783V38.3294H22.0407ZM22.804 37.8135H23.0664V38.0775H22.804V37.8135ZM20.7526 37.8135H21.015V38.0775H20.7526V37.8135ZM24.605 37.8135H24.8674V38.0775H24.605V37.8135ZM24.3426 38.3294H24.0921V38.0655H24.3426V38.3294ZM24.0921 38.5813H23.8417V38.3174H24.0921V38.5813ZM24.605 38.3294V38.0655H24.3545V37.8015H24.0921H23.8297H23.5673V38.0655H23.3049V38.3294H23.0426V38.5933H23.3049H23.5673H23.8178V38.8573V39.1212V39.3851H24.0802V39.1212H24.3426V38.8573H24.605V38.5933V38.3294ZM25.6307 38.5813H25.3802V38.3174H25.6307V38.5813ZM25.3683 38.3294H25.1178V38.0655H25.3683V38.3294ZM26.394 38.5813V38.3174H26.1316V38.0535H25.8811V37.7896H25.6187H25.3564H25.094V38.0535H24.8435V38.3174V38.5813V38.8453H25.1059V39.1092H25.3683V39.3731H25.6307V39.1092V38.8453V38.5813H25.8811H26.1435H26.394ZM21.5279 37.8135H21.7783V38.0535V38.0775H21.5159L21.5279 37.8135ZM22.0407 38.0535V37.8135H22.3031V38.0775H22.0407V38.0535ZM27.9325 38.0655H28.1949V38.3294H27.9325V38.0655ZM26.9068 38.3294V38.0655H27.1692V38.3294H26.9068ZM28.4454 38.5813H28.183V38.3174H28.4454V38.5813ZM26.6564 38.5813V38.3174H26.9188V38.5813H26.6564ZM27.6821 38.3294V38.5933H27.9445V38.8573H27.6821V39.1212H27.4197V38.8573H27.1573V38.5933H27.4197V38.3294H27.6821ZM28.4454 37.8135H28.7078V38.0775H28.4454V37.8135ZM26.394 37.8135H26.6564V38.0775H26.394V37.8135ZM30.2463 37.8135H30.5087V38.0775H30.2463V37.8135ZM29.9959 38.3294H29.7454V38.0655H29.9959V38.3294ZM29.7335 38.5813H29.483V38.3174H29.7335V38.5813ZM30.2463 38.3294V38.0655H29.9959V37.8015H29.7335H29.4711H29.2206V38.0655H28.9582V38.3294H28.6958V38.5933H28.9582H29.2206H29.4711V38.8573V39.1212V39.3851H29.7335V39.1212H29.9959V38.8573H30.2583V38.5933V38.3294H30.2463ZM31.272 38.5813H31.0216V38.3174H31.272V38.5813ZM31.0216 38.3294H30.7711V38.0655H31.0216V38.3294ZM32.0473 38.5813V38.3174H31.7849V38.0535H31.5225V37.7896H31.2601H30.9977H30.7353V38.0535H30.4849V38.3174V38.5813V38.8453H30.7472V39.1092H31.0096V39.3731H31.272V39.1092V38.8453V38.5813H31.5225H31.7849H32.0473ZM27.1692 37.8135H27.4197V38.0535V38.0775H27.1573V37.8135H27.1692ZM27.6821 38.0535V37.8135H27.9445V38.0775H27.6821V38.0535ZM33.5858 38.0655H33.8482V38.3294H33.5858V38.0655ZM32.5601 38.3294V38.0655H32.8225V38.3294H32.5601ZM34.0987 38.5813H33.8363V38.3174H34.0987V38.5813ZM32.2977 38.5813V38.3174H32.5601V38.5813H32.2977ZM33.3234 38.3294V38.5933H33.5858V38.8573H33.3234V39.1212H33.061V38.8573H32.7987V38.5933H33.061V38.3294H33.3234ZM34.0987 37.8135H34.3611V38.0775H34.0987V37.8135ZM32.0473 37.8135H32.3097V38.0775H32.0473V37.8135ZM35.8877 37.8135H36.1501V38.0775H35.8877V37.8135ZM35.6372 38.3294H35.3868V38.0655H35.6372V38.3294ZM35.3748 38.5813H35.1244V38.3174H35.3748V38.5813ZM35.8877 38.3294V38.0655H35.6372V37.8015H35.3748H35.1124H34.8501V38.0655H34.5877V38.3294H34.3491V38.5933H34.6115H34.8739H35.1244V38.8573V39.1212V39.3851H35.3868V39.1212H35.6491V38.8573H35.9115V38.5933V38.3294H35.8877ZM36.9134 38.5813H36.6629V38.3174H36.9134V38.5813ZM36.6629 38.3294H36.4125V38.0655H36.6629V38.3294ZM37.6886 38.5813V38.3174H37.4262V38.0535H37.1638V37.7896H36.9015H36.6391H36.3767V38.0535H36.1262V38.3174V38.5813V38.8453H36.3886V39.1092H36.651V39.3731H36.9134V39.1092V38.8453V38.5813H37.1638H37.4262H37.6886ZM32.8106 37.8135H33.061V38.0535V38.0775H32.7987V37.8135H32.8106ZM33.3234 38.0535V37.8135H33.5858V38.0775H33.3234V38.0535ZM39.2272 38.0655H39.4896V38.3294H39.2272V38.0655ZM38.2015 38.3294V38.0655H38.4639V38.3294H38.2015ZM39.74 38.5813H39.4776V38.3174H39.74V38.5813ZM37.951 38.5813V38.3174H38.2134V38.5813H37.951ZM38.9767 38.3294V38.5933H39.2391V38.8573H38.9767V39.1212H38.7143V38.8573H38.4519V38.5933H38.7143V38.3294H38.9767ZM39.74 37.8135H40.0024V38.0775H39.74V37.8135ZM37.6886 37.8135H37.951V38.0775H37.6886V37.8135ZM41.541 37.8135H41.8034V38.0775H41.541V37.8135ZM41.2786 38.3294H41.0281V38.0655H41.2786V38.3294ZM41.0281 38.5813H40.7777V38.3174H41.0281V38.5813ZM41.541 38.3294V38.0655H41.2905V37.8015H41.0281H40.7657H40.5033V38.0655H40.2409V38.3294H39.9786V38.5933H40.2409H40.5033H40.7538V38.8573V39.1212V39.3851H41.0162V39.1212H41.2786V38.8573H41.541V38.5933V38.3294ZM38.4639 37.8135H38.7143V38.0535V38.0775H38.4519V37.8135H38.4639ZM38.9767 38.0535V37.8135H39.2391V38.0775H38.9767V38.0535ZM8.94513 38.2694C9.08825 38.3894 9.21944 38.4974 9.32679 38.5813H9.45798V38.3174H9.19559V38.0535H8.94513V38.2694ZM42.3043 38.3414V38.3294H42.3162L42.3043 38.3414ZM42.3043 38.3294H42.0538V38.0655H42.3043V38.3294ZM42.8171 37.9695V37.8135H42.5547H42.2924H42.03V38.0775H41.7795V38.3414V38.6053V38.7853L42.8171 37.9695Z" fill="#FEFEFE"/>
</g>
<defs>
<clipPath id="clip0">
<rect width="51" height="101" fill="white"/>
</clipPath>
</defs>
</svg>
