<svg width="70" height="66" viewBox="0 0 70 66" fill="none" xmlns="http://www.w3.org/2000/svg">
<path d="M48.6139 7.39726C48.6139 8.59273 47.6475 9.56405 46.4581 9.56405C43.7263 9.56405 43.6457 5.23047 46.4581 5.23047C47.6475 5.23047 48.6139 6.19556 48.6139 7.39726Z" fill="url(#paint0_linear)"/>
<path d="M40.9653 16.9234C42.1559 16.9234 43.1211 15.9534 43.1211 14.7566C43.1211 13.56 42.1559 12.5898 40.9653 12.5898C39.7748 12.5898 38.8096 13.56 38.8096 14.7566C38.8096 15.9534 39.7748 16.9234 40.9653 16.9234Z" fill="url(#paint1_linear)"/>
<path d="M47.6323 15.6031C48.8229 15.6031 49.7881 14.633 49.7881 13.4363C49.7881 12.2396 48.8229 11.2695 47.6323 11.2695C46.4417 11.2695 45.4766 12.2396 45.4766 13.4363C45.4766 14.633 46.4417 15.6031 47.6323 15.6031Z" fill="url(#paint2_linear)"/>
<path d="M49.4335 56.6978C50.6241 56.6978 51.5893 55.7278 51.5893 54.5311C51.5893 53.3344 50.6241 52.3643 49.4335 52.3643C48.243 52.3643 47.2778 53.3344 47.2778 54.5311C47.2778 55.7278 48.243 56.6978 49.4335 56.6978Z" fill="url(#paint3_linear)"/>
<path d="M43.753 64.2564C44.9435 64.2564 45.9087 63.2864 45.9087 62.0896C45.9087 60.893 44.9435 59.9229 43.753 59.9229C42.5624 59.9229 41.5972 60.893 41.5972 62.0896C41.5972 63.2864 42.5624 64.2564 43.753 64.2564Z" fill="url(#paint4_linear)"/>
<path d="M16.4405 64.2564C17.631 64.2564 18.5962 63.2864 18.5962 62.0896C18.5962 60.893 17.631 59.9229 16.4405 59.9229C15.2499 59.9229 14.2847 60.893 14.2847 62.0896C14.2847 63.2864 15.2499 64.2564 16.4405 64.2564Z" fill="url(#paint5_linear)"/>
<path d="M10.054 57.5318C11.2446 57.5318 12.2098 56.5617 12.2098 55.365C12.2098 54.1683 11.2446 53.1982 10.054 53.1982C8.86339 53.1982 7.89825 54.1683 7.89825 55.365C7.89825 56.5617 8.86339 57.5318 10.054 57.5318Z" fill="url(#paint6_linear)"/>
<path d="M3.77276 49.1202C4.96335 49.1202 5.92851 48.1501 5.92851 46.9534C5.92851 45.7568 4.96335 44.7866 3.77276 44.7866C2.58217 44.7866 1.617 45.7568 1.617 46.9534C1.617 48.1501 2.58217 49.1202 3.77276 49.1202Z" fill="url(#paint7_linear)"/>
<path d="M34.4292 11.731C35.6198 11.731 36.5849 10.761 36.5849 9.56425C36.5849 8.36754 35.6198 7.39746 34.4292 7.39746C33.2386 7.39746 32.2734 8.36754 32.2734 9.56425C32.2734 10.761 33.2386 11.731 34.4292 11.731Z" fill="url(#paint8_linear)"/>
<path d="M40.9653 5.22397C42.1559 5.22397 43.1211 4.25386 43.1211 3.05717C43.1211 1.86049 42.1559 0.890381 40.9653 0.890381C39.7748 0.890381 38.8096 1.86049 38.8096 3.05717C38.8096 4.25386 39.7748 5.22397 40.9653 5.22397Z" fill="url(#paint9_linear)"/>
<path d="M27.6323 5.22421C28.8229 5.22421 29.7881 4.2541 29.7881 3.05742C29.7881 1.86073 28.8229 0.890625 27.6323 0.890625C26.4418 0.890625 25.4766 1.86073 25.4766 3.05742C25.4766 4.2541 26.4418 5.22421 27.6323 5.22421Z" fill="url(#paint10_linear)"/>
<path d="M42.7183 15.7715C42.867 15.7217 42.9909 15.5972 43.028 15.4415C43.5546 13.1938 44.3723 10.8589 47.4201 9.33961C49.8112 8.14414 47.5502 6.15791 45.9705 5.71584C45.3139 5.52904 44.651 5.93999 44.5024 6.60621C44.1555 8.15036 43.8519 11.5998 40.2094 12.733C38.8156 13.1626 41.7767 15.2236 41.7767 15.2236L42.7183 15.7715Z" fill="url(#paint11_linear)"/>
<path d="M35.017 0.454093C36.1258 0.721829 36.8011 1.81768 36.5285 2.90107C35.8966 5.37919 31.8577 4.48258 32.5081 1.92975C32.7869 0.846357 33.9081 0.186357 35.017 0.454093Z" fill="url(#paint12_linear)"/>
<path d="M40.3338 10.834C41.4765 10.834 42.4028 9.93083 42.4028 8.81667C42.4028 7.70252 41.4765 6.79932 40.3338 6.79932C39.1911 6.79932 38.2648 7.70252 38.2648 8.81667C38.2648 9.93083 39.1911 10.834 40.3338 10.834Z" fill="url(#paint13_linear)"/>
<path d="M41.6159 7.41559C41.5973 7.26616 41.5044 7.1354 41.3681 7.07314C39.3672 6.17031 37.3415 4.97484 36.5115 1.89899C35.861 -0.516863 33.5628 1.17672 32.838 2.54031C32.5407 3.10691 32.7823 3.77936 33.3769 4.04087C34.7584 4.65106 37.546 5.38578 38.3203 9.31465C38.5991 10.7218 40.9035 8.17521 40.9035 8.17521L41.6159 7.41559Z" fill="url(#paint14_linear)"/>
<path d="M41.3699 7.07341C39.3691 6.17058 37.362 4.97511 36.5133 1.89926C36.123 0.479637 33.5646 1.177 32.8398 2.54058" fill="url(#paint15_linear)"/>
<path d="M36.2223 2.68957C36.148 3.86636 35.1693 4.74429 34.0294 4.65712C31.4277 4.45165 31.6197 0.186552 34.2958 0.39825C35.4356 0.491646 36.2967 1.519 36.2223 2.68957Z" fill="url(#paint16_linear)"/>
<path d="M30.8013 9.726C30.727 10.9028 29.7482 11.7807 28.6084 11.6935C27.4748 11.6064 26.6137 10.579 26.6881 9.40223C26.7624 8.22543 27.7412 7.34751 28.881 7.43468C30.0208 7.52185 30.8757 8.54921 30.8013 9.726Z" fill="url(#paint17_linear)"/>
<path d="M30.3788 10.6223C30.5275 10.5787 30.6452 10.4604 30.6823 10.311C31.2398 8.1193 32.0823 5.84666 35.031 4.46439C37.3478 3.37477 35.2354 1.33873 33.7363 0.846846C33.1168 0.641374 32.485 1.00873 32.3239 1.66251C31.9584 3.17553 31.7044 6.13307 27.8947 7.61496C26.5319 8.1442 29.4929 10.0433 29.4929 10.0433L30.3788 10.6223Z" fill="url(#paint18_linear)"/>
<path d="M30.6836 10.3108C31.2411 8.11913 32.0898 5.86517 35.0323 4.46423C36.3889 3.81668 35.2367 1.33857 33.7376 0.84668" fill="url(#paint19_linear)"/>
<path d="M45.3809 55.6514C45.257 56.959 44.1234 57.9054 42.8597 57.7622C39.9606 57.4384 40.3323 52.6876 43.3181 53.0239C44.588 53.1608 45.511 54.3376 45.3809 55.6514Z" fill="url(#paint20_linear)"/>
<path d="M39.0745 63.2913C38.9506 64.5988 37.817 65.5453 36.5532 65.4021C35.2895 65.2588 34.3665 64.082 34.4966 62.7745C34.6205 61.467 35.7541 60.5205 37.0178 60.6637C38.2816 60.807 39.1984 61.9837 39.0745 63.2913Z" fill="url(#paint21_linear)"/>
<path d="M38.5667 64.2813C38.7339 64.2377 38.864 64.1131 38.9136 63.945C39.6198 61.5167 40.6419 59.0199 43.987 57.5816C46.6136 56.4547 44.3339 54.1011 42.6799 53.4971C41.9985 53.2418 41.2737 53.6341 41.0755 54.3501C40.6109 56.0188 40.2145 59.3188 35.9092 60.8256C34.3667 61.3673 37.6003 63.5964 37.6003 63.5964L38.5667 64.2813Z" fill="url(#paint22_linear)"/>
<path d="M38.9213 63.9389C39.6275 61.5106 40.6558 59.0325 43.9947 57.5755C45.5372 56.903 44.3416 54.0949 42.6876 53.491" fill="url(#paint23_linear)"/>
<path d="M51.6739 47.9991C51.55 49.3066 50.4164 50.253 49.1527 50.1098C46.2536 49.786 46.6252 45.0353 49.6111 45.3715C50.881 45.5147 51.804 46.6915 51.6739 47.9991Z" fill="url(#paint24_linear)"/>
<path d="M45.3714 55.6458C45.2475 56.9533 44.1138 57.8997 42.8501 57.7565C41.5864 57.6133 40.6634 56.4365 40.7935 55.129C40.9174 53.8214 42.051 52.875 43.3147 53.0182C44.5784 53.1614 45.4952 54.3382 45.3714 55.6458Z" fill="url(#paint25_linear)"/>
<path d="M44.8682 56.6292C45.0354 56.5856 45.1655 56.4611 45.2151 56.2929C45.9213 53.8646 46.9434 51.3678 50.2885 49.9295C52.9151 48.8026 50.6354 46.449 48.9815 45.845C48.3 45.5897 47.5753 45.982 47.377 46.698C46.9124 48.3667 46.516 51.6667 42.2107 53.1735C40.6682 53.7152 43.9018 55.9443 43.9018 55.9443L44.8682 56.6292Z" fill="url(#paint26_linear)"/>
<path d="M45.215 56.2931C45.9212 53.8648 46.9495 51.3867 50.2884 49.9297C51.8309 49.2573 50.6353 46.4492 48.9813 45.8452" fill="url(#paint27_linear)"/>
<path d="M45.3809 48.2491C45.257 49.5566 44.1234 50.503 42.8597 50.3598C39.9606 50.0361 40.3323 45.2853 43.3181 45.6215C44.588 45.7585 45.511 46.9353 45.3809 48.2491Z" fill="url(#paint28_linear)"/>
<path d="M39.0745 55.888C38.9506 57.1955 37.817 58.1419 36.5532 57.9987C35.2895 57.8555 34.3665 56.6787 34.4966 55.3712C34.6205 54.0636 35.7541 53.1172 37.0178 53.2604C38.2754 53.4036 39.1984 54.5804 39.0745 55.888Z" fill="url(#paint29_linear)"/>
<path d="M38.5667 56.8779C38.7339 56.8344 38.864 56.7098 38.9136 56.5417C39.6198 54.1134 40.6419 51.6166 43.987 50.1783C46.6136 49.0513 44.3339 46.6978 42.6799 46.0938C41.9985 45.8385 41.2737 46.2308 41.0755 46.9468C40.6109 48.6155 40.2145 51.9155 35.9092 53.4223C34.3667 53.964 37.6003 56.193 37.6003 56.193L38.5667 56.8779Z" fill="url(#paint30_linear)"/>
<path d="M38.9213 56.5361C39.6275 54.1078 40.6558 51.6297 43.9947 50.1727C45.5372 49.5002 44.3416 46.6921 42.6876 46.0881" fill="url(#paint31_linear)"/>
<path d="M2.38524 28.9154C3.57583 28.9154 4.54099 27.9452 4.54099 26.7486C4.54099 25.5519 3.57583 24.5818 2.38524 24.5818C1.19465 24.5818 0.229492 25.5519 0.229492 26.7486C0.229492 27.9452 1.19465 28.9154 2.38524 28.9154Z" fill="url(#paint32_linear)"/>
<path d="M8.98876 14.8502C10.1794 14.8502 11.1445 13.8801 11.1445 12.6834C11.1445 11.4867 10.1794 10.5166 8.98876 10.5166C7.79814 10.5166 6.83301 11.4867 6.83301 12.6834C6.83301 13.8801 7.79814 14.8502 8.98876 14.8502Z" fill="url(#paint33_linear)"/>
<path d="M15.4565 6.80526C16.6472 6.80526 17.6123 5.83516 17.6123 4.63847C17.6123 3.44179 16.6472 2.47168 15.4565 2.47168C14.266 2.47168 13.3008 3.44179 13.3008 4.63847C13.3008 5.83516 14.266 6.80526 15.4565 6.80526Z" fill="url(#paint34_linear)"/>
<path d="M23.7753 4.05327C23.6514 5.36081 22.5178 6.30723 21.254 6.16402C18.3549 5.84025 18.7266 1.08949 21.7125 1.42572C22.9824 1.56893 23.8992 2.74572 23.7753 4.05327Z" fill="url(#paint35_linear)"/>
<path d="M17.4651 11.6995C17.3412 13.007 16.2076 13.9535 14.9439 13.8102C13.6801 13.667 12.7571 12.4902 12.8872 11.1827C13.0111 9.87515 14.1447 8.92874 15.4085 9.07195C16.6722 9.21515 17.5952 10.3919 17.4651 11.6995Z" fill="url(#paint36_linear)"/>
<path d="M16.9614 12.6831C17.1286 12.6395 17.2587 12.515 17.3083 12.3469C18.0145 9.91859 19.0366 7.42179 22.3817 5.98349C25.0083 4.85651 22.7286 2.50293 21.0747 1.89896C20.3932 1.64368 19.6685 2.03595 19.4702 2.75198C19.0056 4.42066 18.6092 7.72066 14.3039 9.22745C12.7614 9.76915 15.995 11.9982 15.995 11.9982L16.9614 12.6831Z" fill="url(#paint37_linear)"/>
<path d="M17.3082 12.3471C18.0144 9.91879 19.0427 7.44068 22.3816 5.9837C23.9241 5.31125 22.7285 2.50313 21.0745 1.89917" fill="url(#paint38_linear)"/>
<path d="M17.4864 11.7549C17.3625 13.0625 16.2289 14.0089 14.9652 13.8657C12.0661 13.5419 12.4377 8.79115 15.4236 9.12738C16.6873 9.27059 17.6103 10.4474 17.4864 11.7549Z" fill="url(#paint39_linear)"/>
<path d="M11.176 19.4016C11.0521 20.7092 9.91852 21.6556 8.6548 21.5124C7.39108 21.3692 6.46807 20.1924 6.59816 18.8848C6.72825 17.5773 7.85569 16.6309 9.1194 16.7741C10.3831 16.9173 11.2999 18.0941 11.176 19.4016Z" fill="url(#paint40_linear)"/>
<path d="M10.6721 20.3848C10.8394 20.3412 10.9695 20.2167 11.019 20.0485C11.7252 17.6202 12.7474 15.1235 16.0925 13.6852C18.719 12.5582 16.4394 10.2046 14.7854 9.60062C14.104 9.34534 13.3792 9.73761 13.181 10.4536C12.7164 12.1223 12.3199 15.4223 8.01462 16.9291C6.47214 17.4708 9.70577 19.6999 9.70577 19.6999L10.6721 20.3848Z" fill="url(#paint41_linear)"/>
<path d="M11.0195 20.0495C11.7257 17.6212 12.754 15.1431 16.093 13.6861C17.6355 13.0136 16.4399 10.2055 14.7859 9.60156" fill="url(#paint42_linear)"/>
<path d="M24.2706 10.8028C24.1467 12.1103 23.0131 13.0567 21.7493 12.9135C18.8502 12.5898 19.2219 7.839 22.2078 8.17523C23.4715 8.31844 24.3945 9.49523 24.2706 10.8028Z" fill="url(#paint43_linear)"/>
<path d="M17.9602 18.4485C17.8363 19.7561 16.7027 20.7025 15.4389 20.5593C14.1752 20.4161 13.2584 19.2393 13.3823 17.9317C13.5062 16.6242 14.6398 15.6778 15.9035 15.821C17.1673 15.958 18.0903 17.1347 17.9602 18.4485Z" fill="url(#paint44_linear)"/>
<path d="M17.4567 19.4326C17.6239 19.389 17.754 19.2645 17.8036 19.0964C18.5098 16.6681 19.5319 14.1713 22.877 12.733C25.5036 11.606 23.2239 9.25244 21.57 8.64848C20.8885 8.39319 20.1638 8.78546 19.9655 9.50149C19.5009 11.1702 19.1045 14.4702 14.7992 15.977C13.2567 16.5187 16.4903 18.7477 16.4903 18.7477L17.4567 19.4326Z" fill="url(#paint45_linear)"/>
<path d="M17.8047 19.0964C18.5109 16.6681 19.5392 14.1899 22.8781 12.733C24.4206 12.0605 23.225 9.2524 21.5711 8.64844" fill="url(#paint46_linear)"/>
<path d="M17.9786 18.5918C17.8547 19.8994 16.7211 20.8458 15.4574 20.7026C12.5582 20.3788 12.9299 15.6281 15.9158 15.9643C17.1857 16.1075 18.1087 17.2843 17.9786 18.5918Z" fill="url(#paint47_linear)"/>
<path d="M11.6721 26.2376C11.5482 27.5451 10.4146 28.4915 9.1509 28.3483C7.88718 28.2051 6.96417 27.0283 7.09426 25.7208C7.21815 24.4132 8.35178 23.4668 9.6155 23.61C10.8792 23.7532 11.796 24.93 11.6721 26.2376Z" fill="url(#paint48_linear)"/>
<path d="M11.1643 27.2217C11.3316 27.1781 11.4617 27.0536 11.5112 26.8855C12.2174 24.4572 13.2396 21.9604 16.5847 20.5221C19.2112 19.3951 16.9316 17.0415 15.2776 16.4375C14.5962 16.1823 13.8714 16.5745 13.6732 17.2906C13.2086 18.9592 12.8121 22.2592 8.50681 23.766C6.96433 24.3077 10.198 26.5368 10.198 26.5368L11.1643 27.2217Z" fill="url(#paint49_linear)"/>
<path d="M11.516 26.8854C12.2222 24.4571 13.2505 21.979 16.5894 20.522C18.1319 19.8496 16.9363 17.0415 15.2824 16.4375" fill="url(#paint50_linear)"/>
<path d="M11.5094 26.481C11.3855 27.7885 10.2519 28.735 8.98817 28.5918C6.08906 28.268 6.46074 23.5172 9.44658 23.8535C10.7103 23.9904 11.6333 25.1672 11.5094 26.481Z" fill="url(#paint51_linear)"/>
<path d="M5.19846 34.121C5.07457 35.4286 3.94094 36.375 2.67722 36.2318C1.41351 36.0948 0.496696 34.918 0.620587 33.6104C0.744481 32.3029 1.87811 31.3565 3.14183 31.4997C4.40554 31.6429 5.32855 32.8135 5.19846 34.121Z" fill="url(#paint52_linear)"/>
<path d="M4.69546 35.1109C4.86271 35.0673 4.9928 34.9427 5.04236 34.7746C5.74855 32.3463 6.77068 29.8495 10.1158 28.4112C12.7424 27.2842 10.4627 24.9307 8.80873 24.3267C8.12732 24.0714 7.40254 24.4637 7.20431 25.1797C6.73971 26.8484 6.34324 30.1484 2.03793 31.6552C0.495458 32.1969 3.72908 34.426 3.72908 34.426L4.69546 35.1109Z" fill="url(#paint53_linear)"/>
<path d="M5.04224 34.7685C5.74843 32.3402 6.77675 29.8621 10.1157 28.4051C11.6582 27.7326 10.4626 24.9245 8.80861 24.3206" fill="url(#paint54_linear)"/>
<path d="M18.4666 25.5721C18.3427 26.8796 17.2091 27.826 15.9454 27.6828C13.0463 27.359 13.418 22.6083 16.4038 22.9445C17.6737 23.0815 18.5967 24.2583 18.4666 25.5721Z" fill="url(#paint55_linear)"/>
<path d="M12.16 33.2178C12.0362 34.5253 10.9025 35.4718 9.63881 35.3286C8.37509 35.1853 7.45208 34.0086 7.58217 32.701C7.70607 31.3935 8.83969 30.4471 10.1034 30.5903C11.3671 30.7335 12.2839 31.904 12.16 33.2178Z" fill="url(#paint56_linear)"/>
<path d="M11.6565 34.2022C11.8238 34.1586 11.9539 34.034 12.0034 33.8659C12.7096 31.4376 13.7317 28.9408 17.0769 27.5025C19.7034 26.3756 17.4238 24.022 15.7698 23.418C15.0884 23.1627 14.3636 23.555 14.1654 24.271C13.7008 25.9397 13.3043 29.2397 8.99899 30.7465C7.45652 31.2882 10.6901 33.5173 10.6901 33.5173L11.6565 34.2022Z" fill="url(#paint57_linear)"/>
<path d="M12.0039 33.8591C12.7101 31.4308 13.7384 28.9526 17.0774 27.4957C18.6198 26.8232 17.4243 24.0151 15.7703 23.4111" fill="url(#paint58_linear)"/>
<path d="M11.9991 33.4483C11.8752 34.7558 10.7416 35.7022 9.47786 35.559C6.57875 35.2353 6.95043 30.4845 9.93627 30.8207C11.2 30.9639 12.123 32.1407 11.9991 33.4483Z" fill="url(#paint59_linear)"/>
<path d="M5.68697 41.0945C5.56307 42.4021 4.42944 43.3485 3.16573 43.2053C1.90201 43.0621 0.979 41.8853 1.10909 40.5777C1.23298 39.2702 2.36661 38.3238 3.63033 38.467C4.89404 38.6102 5.81705 39.787 5.68697 41.0945Z" fill="url(#paint60_linear)"/>
<path d="M5.18386 42.0781C5.35112 42.0346 5.48121 41.91 5.53076 41.7419C6.23696 39.3136 7.25908 36.8168 10.6042 35.3785C13.2308 34.2515 10.9511 31.8979 9.29713 31.294C8.61572 31.0387 7.89094 31.431 7.69271 32.147C7.22811 33.8157 6.83165 37.1157 2.52634 38.6225C0.98386 39.1642 4.21749 41.3932 4.21749 41.3932L5.18386 42.0781Z" fill="url(#paint61_linear)"/>
<path d="M5.53198 41.7419C6.23818 39.3136 7.2665 36.8355 10.6054 35.3785C12.1479 34.706 10.9523 31.8979 9.29836 31.2939" fill="url(#paint62_linear)"/>
<path d="M16.8046 50.1725C15.5347 49.8674 14.7542 48.6159 15.0639 47.3769C15.7825 44.5376 20.4099 45.5525 19.6728 48.4789C19.363 49.718 18.0745 50.4776 16.8046 50.1725Z" fill="url(#paint63_linear)"/>
<path d="M10.1286 42.8437C8.85869 42.5387 8.07816 41.2871 8.38789 40.0481C8.70382 38.809 9.98613 38.0494 11.2622 38.3545C12.5321 38.6596 13.3127 39.9111 13.0029 41.1502C12.687 42.3954 11.4047 43.1488 10.1286 42.8437Z" fill="url(#paint64_linear)"/>
<path d="M9.22992 42.209C9.2547 42.3771 9.35381 42.5327 9.51488 42.6012C11.8131 43.6348 14.1361 44.9922 15.0901 48.5163C15.8397 51.2808 18.4724 49.3382 19.2963 47.7754C19.637 47.1278 19.3582 46.3558 18.6768 46.0631C17.091 45.372 13.9007 44.5252 12.9963 40.0359C12.6742 38.4233 10.0352 41.3435 10.0352 41.3435L9.22992 42.209Z" fill="url(#paint65_linear)"/>
<path d="M9.51526 42.6011C11.8135 43.6347 14.1179 44.9982 15.0905 48.5162C15.5427 50.1413 18.4728 49.3381 19.2967 47.7752" fill="url(#paint66_linear)"/>
<path d="M23.7304 57.5758C22.4605 57.2707 21.68 56.0192 21.9897 54.7802C22.7083 51.9409 27.3357 52.9558 26.5986 55.8822C26.2888 57.1213 25.0003 57.8809 23.7304 57.5758Z" fill="url(#paint67_linear)"/>
<path d="M17.0585 50.2471C15.7886 49.942 15.0081 48.6905 15.3178 47.4514C15.6276 46.2124 16.9161 45.4527 18.1922 45.7578C19.4683 46.0629 20.2426 47.3144 19.9329 48.5535C19.6169 49.7925 18.3284 50.5522 17.0585 50.2471Z" fill="url(#paint68_linear)"/>
<path d="M16.1557 49.612C16.1805 49.7802 16.2796 49.9358 16.4407 50.0043C18.7389 51.0379 21.0619 52.3952 22.0159 55.9194C22.7654 58.6839 25.3982 56.7413 26.2221 55.1785C26.5628 54.5309 26.284 53.7588 25.6026 53.4662C24.0168 52.7751 20.8265 51.9283 19.9221 47.439C19.5999 45.8264 16.961 48.7466 16.961 48.7466L16.1557 49.612Z" fill="url(#paint69_linear)"/>
<path d="M16.441 50.0044C18.7393 51.038 21.0437 52.4016 22.0163 55.9195C22.4685 57.5446 25.3986 56.7414 26.2225 55.1785" fill="url(#paint70_linear)"/>
<path d="M30.4023 64.9792C29.1324 64.6741 28.3518 63.4225 28.6616 62.1835C29.3802 59.3443 34.0076 60.3592 33.2704 63.2856C32.9607 64.5246 31.6784 65.2842 30.4023 64.9792Z" fill="url(#paint71_linear)"/>
<path d="M23.7304 57.6504C22.4605 57.3453 21.68 56.0938 21.9897 54.8547C22.3056 53.6157 23.5879 52.8561 24.864 53.1612C26.1339 53.4662 26.9145 54.7178 26.6047 55.9568C26.295 57.1959 25.0003 57.9555 23.7304 57.6504Z" fill="url(#paint72_linear)"/>
<path d="M22.8276 57.0154C22.8524 57.1835 22.9515 57.3391 23.1125 57.4076C25.4108 58.4412 27.7338 59.7986 28.6878 63.3227C29.4373 66.0872 32.0701 64.1446 32.8939 62.5818C33.2347 61.9342 32.9559 61.1621 32.2745 60.8695C30.6886 60.1784 27.4984 59.3316 26.5939 54.8423C26.2718 53.2297 23.6329 56.1499 23.6329 56.1499L22.8276 57.0154Z" fill="url(#paint73_linear)"/>
<path d="M23.1133 57.4072C25.4115 58.4408 27.7159 59.8044 28.6885 63.3223C29.1407 64.9474 32.0708 64.1442 32.8947 62.5814" fill="url(#paint74_linear)"/>
<path d="M16.164 57.2516C14.8941 56.9465 14.1136 55.695 14.4233 54.456C15.1419 51.6167 19.7693 52.6316 19.0321 55.558C18.7224 56.7971 17.4401 57.5567 16.164 57.2516Z" fill="url(#paint75_linear)"/>
<path d="M9.49213 49.9238C8.22222 49.6187 7.44169 48.3672 7.75142 47.1282C8.06735 45.8891 9.34965 45.1295 10.6258 45.4346C11.9019 45.7397 12.6762 46.9912 12.3665 48.2302C12.0505 49.4693 10.762 50.2289 9.49213 49.9238Z" fill="url(#paint76_linear)"/>
<path d="M8.58612 49.2886C8.6109 49.4567 8.71001 49.6123 8.87108 49.6808C11.1693 50.7144 13.4923 52.0718 14.4463 55.5959C15.1959 58.3604 17.8286 56.4178 18.6525 54.855C18.9932 54.2074 18.7144 53.4353 18.033 53.1427C16.4472 52.4516 13.2569 51.6048 12.3525 47.1155C12.0304 45.5029 9.39143 48.4231 9.39143 48.4231L8.58612 49.2886Z" fill="url(#paint77_linear)"/>
<path d="M8.87067 49.6807C11.1689 50.7143 13.4733 52.0778 14.4459 55.5958C14.8981 57.2209 17.8282 56.4177 18.6521 54.8548" fill="url(#paint78_linear)"/>
<path d="M22.8835 64.6552C21.6136 64.3501 20.8331 63.0986 21.1428 61.8595C21.8614 59.0203 26.4889 60.0352 25.7517 62.9616C25.4481 64.2007 24.1597 64.9603 22.8835 64.6552Z" fill="url(#paint79_linear)"/>
<path d="M16.2117 57.3264C14.9418 57.0213 14.1612 55.7698 14.471 54.5308C14.7869 53.2917 16.0692 52.5321 17.3453 52.8372C18.6152 53.1423 19.3957 54.3938 19.086 55.6328C18.7701 56.8719 17.4878 57.6315 16.2117 57.3264Z" fill="url(#paint80_linear)"/>
<path d="M15.3086 56.6919C15.3334 56.86 15.4325 57.0156 15.5936 57.0841C17.8918 58.1177 20.2148 59.4751 21.1688 62.9992C21.9183 65.7638 24.5511 63.8211 25.375 62.2583C25.7157 61.6107 25.4369 60.8387 24.7555 60.546C23.1697 59.8549 19.9794 59.0081 19.075 54.5189C18.7528 52.9062 16.1139 55.8264 16.1139 55.8264L15.3086 56.6919Z" fill="url(#paint81_linear)"/>
<path d="M15.5984 57.084C17.8966 58.1176 20.201 59.4812 21.1736 62.9991C21.6258 64.6242 24.5559 63.821 25.3798 62.2581" fill="url(#paint82_linear)"/>
<path d="M28.5064 29.141L28.8412 29.4428C28.0733 30.1453 27.1692 30.4966 26.129 30.4966C25.0132 30.4966 24.0616 30.1024 23.274 29.3142C22.4898 28.5225 22.0977 27.566 22.0977 26.4446C22.0977 25.3265 22.4898 24.3716 23.274 23.58C24.0616 22.7884 25.0132 22.3926 26.129 22.3926C27.1692 22.3926 28.0733 22.7439 28.8412 23.4464L28.5064 23.7532C27.8305 23.1496 27.038 22.8478 26.129 22.8478C25.1412 22.8478 24.2979 23.199 23.5989 23.9016C22.9 24.6041 22.5505 25.4518 22.5505 26.4446C22.5505 27.4407 22.9 28.2901 23.5989 28.9926C24.2979 29.6951 25.1412 30.0464 26.129 30.0464C27.038 30.0464 27.8305 29.7446 28.5064 29.141ZM32.2917 27.2016L29.5844 22.4866H30.0915L32.5132 26.7068L34.9399 22.4866H35.4469L32.7347 27.2016V30.4026H32.2917V27.2016ZM37.8342 22.4866C38.2379 22.4866 38.5824 22.6301 38.8679 22.917C39.1567 23.204 39.3011 23.5503 39.3011 23.956C39.3011 24.365 39.0927 24.746 38.6759 25.0989C39.0435 25.1747 39.3896 25.3925 39.7145 25.752C40.2395 26.283 40.5021 26.9245 40.5021 27.6766C40.5021 28.4253 40.2395 29.0734 39.7145 29.6209C39.2256 30.1288 38.6414 30.3878 37.9622 30.3977V30.4026H36.4363V22.4866H37.8342ZM36.8793 25.4304V29.9574H37.9622V29.9623C38.5102 29.926 38.9828 29.7001 39.3798 29.2845C39.8163 28.8326 40.0345 28.2967 40.0345 27.6766C40.0345 27.0565 39.8163 26.527 39.3798 26.0884C38.9434 25.6497 38.4167 25.4304 37.7998 25.4304H36.8793ZM36.8793 22.9318V24.9554H37.9475C38.1936 24.9323 38.4036 24.84 38.5775 24.6784C38.7777 24.4936 38.8778 24.2528 38.8778 23.956C38.8778 23.6592 38.7777 23.4151 38.5775 23.2238C38.3773 23.0292 38.1296 22.9318 37.8342 22.9318H36.8793ZM45.6213 22.4866V22.9318H42.1265V26.2219H45.6213V26.6673H42.1265V29.9574H45.6213V30.4026H41.6835V22.4866H45.6213ZM47.4229 22.9368V27.2065H48.7617C49.3458 27.2065 49.8446 26.9988 50.2581 26.5831C50.6749 26.1642 50.8832 25.6596 50.8832 25.0692C50.8832 24.4788 50.6749 23.9758 50.2581 23.5602C49.8446 23.1446 49.3458 22.9368 48.7617 22.9368H47.4229ZM48.8946 27.6518C48.852 27.6551 48.8077 27.6568 48.7617 27.6568H47.4229V30.4026H46.9799V22.4866H49.0472C49.6477 22.569 50.158 22.8214 50.5781 23.2435C51.0801 23.7482 51.3311 24.3568 51.3311 25.0692C51.3311 25.7849 51.0801 26.3951 50.5781 26.8998C50.2302 27.2494 49.8315 27.4786 49.3819 27.5875L51.1983 30.4026H50.6519L48.8946 27.6518Z" fill="white"/>
<path d="M28.6237 39.3653L28.9642 39.6723C28.1831 40.3868 27.2637 40.7441 26.2057 40.7441C25.0709 40.7441 24.103 40.3432 23.302 39.5414C22.5043 38.7363 22.1055 37.7634 22.1055 36.6229C22.1055 35.4856 22.5043 34.5145 23.302 33.7093C24.103 32.9043 25.0709 32.5017 26.2057 32.5017C27.2637 32.5017 28.1831 32.8589 28.9642 33.5735L28.6237 33.8855C27.9362 33.2716 27.1302 32.9646 26.2057 32.9646C25.2011 32.9646 24.3433 33.3219 23.6324 34.0364C22.9215 34.751 22.566 35.6131 22.566 36.6229C22.566 37.636 22.9215 38.4998 23.6324 39.2143C24.3433 39.9288 25.2011 40.2861 26.2057 40.2861C27.1302 40.2861 27.9362 39.9792 28.6237 39.3653ZM30.6713 33.0552V37.3978H32.033C32.6271 37.3978 33.1344 37.1864 33.5549 36.7638C33.9788 36.3377 34.1908 35.8245 34.1908 35.224C34.1908 34.6235 33.9788 34.1119 33.5549 33.6892C33.1344 33.2665 32.6271 33.0552 32.033 33.0552H30.6713ZM32.1682 37.8507C32.1248 37.854 32.0797 37.8557 32.033 37.8557H30.6713V40.6484H30.2207V32.5973H32.3234C32.9342 32.6812 33.4531 32.9378 33.8803 33.3672C34.391 33.8804 34.6463 34.4993 34.6463 35.224C34.6463 35.9519 34.391 36.5726 33.8803 37.0858C33.5266 37.4414 33.1211 37.6746 32.6638 37.7852L34.5111 40.6484H33.9554L32.1682 37.8507ZM39.6827 32.5973V33.0502H36.1282V36.3964H39.6827V36.8493H36.1282V40.1956H39.6827V40.6484H35.6776V32.5973H39.6827ZM44.7691 37.111L43.5476 33.7345L42.3261 37.111H44.7691ZM44.9343 37.5639H42.1608L41.0444 40.6484H40.5638L43.5476 32.4111L46.5263 40.6484H46.0507L44.9343 37.5639ZM49.1397 33.0502V40.6484H48.6891V33.0502H46.6615V32.5973H51.1672V33.0502H49.1397ZM52.7191 32.5973V40.6484H52.2686V32.5973H52.7191ZM58.3062 32.4816C59.441 32.4816 60.4089 32.8858 61.2099 33.6943C62.0143 34.4994 62.4164 35.4722 62.4164 36.6128C62.4164 37.7534 62.0143 38.7279 61.2099 39.5364C60.4089 40.3415 59.441 40.7441 58.3062 40.7441C57.1714 40.7441 56.2019 40.3415 55.3975 39.5364C54.5966 38.7279 54.196 37.7534 54.196 36.6128C54.196 35.4722 54.5966 34.4994 55.3975 33.6943C56.2019 32.8858 57.1714 32.4816 58.3062 32.4816ZM58.3062 32.9445C57.2982 32.9445 56.4372 33.3034 55.7229 34.0213C55.012 34.7359 54.6566 35.5997 54.6566 36.6128C54.6566 37.6259 55.012 38.4914 55.7229 39.2093C56.4372 39.9272 57.2982 40.2861 58.3062 40.2861C59.3142 40.2861 60.1736 39.9272 60.8845 39.2093C61.5987 38.4914 61.9561 37.6259 61.9561 36.6128C61.9561 35.5997 61.5987 34.7359 60.8845 34.0213C60.1736 33.3034 59.3142 32.9445 58.3062 32.9445ZM63.7934 32.5973H64.289L68.4042 39.7578V32.5973H68.8545V40.6484H68.4042L64.2438 33.4175V40.6484H63.7934V32.5973Z" fill="white"/>
<defs>
<linearGradient id="paint0_linear" x1="59.5026" y1="-5.30344" x2="-5.91986" y2="57.6945" gradientUnits="userSpaceOnUse">
<stop stop-color="#55B5CB"/>
<stop offset="0.5099" stop-color="#8DC9D8"/>
<stop offset="1"/>
</linearGradient>
<linearGradient id="paint1_linear" x1="60.5105" y1="-4.25897" x2="-4.91194" y2="58.739" gradientUnits="userSpaceOnUse">
<stop stop-color="#55B5CB"/>
<stop offset="0.5099" stop-color="#8DC9D8"/>
<stop offset="1"/>
</linearGradient>
<linearGradient id="paint2_linear" x1="63.0837" y1="-1.58895" x2="-2.33907" y2="61.409" gradientUnits="userSpaceOnUse">
<stop stop-color="#55B5CB"/>
<stop offset="0.5099" stop-color="#8DC9D8"/>
<stop offset="1"/>
</linearGradient>
<linearGradient id="paint3_linear" x1="84.3803" y1="20.5294" x2="18.9578" y2="83.5272" gradientUnits="userSpaceOnUse">
<stop stop-color="#55B5CB"/>
<stop offset="0.5099" stop-color="#8DC9D8"/>
<stop offset="1"/>
</linearGradient>
<linearGradient id="paint4_linear" x1="85.3937" y1="21.5819" x2="19.9715" y2="84.5798" gradientUnits="userSpaceOnUse">
<stop stop-color="#55B5CB"/>
<stop offset="0.5099" stop-color="#8DC9D8"/>
<stop offset="1"/>
</linearGradient>
<linearGradient id="paint5_linear" x1="72.184" y1="7.86333" x2="6.76121" y2="70.8611" gradientUnits="userSpaceOnUse">
<stop stop-color="#55B5CB"/>
<stop offset="0.5099" stop-color="#8DC9D8"/>
<stop offset="1"/>
</linearGradient>
<linearGradient id="paint6_linear" x1="65.7517" y1="1.18323" x2="0.329009" y2="64.1813" gradientUnits="userSpaceOnUse">
<stop stop-color="#55B5CB"/>
<stop offset="0.5099" stop-color="#8DC9D8"/>
<stop offset="1"/>
</linearGradient>
<linearGradient id="paint7_linear" x1="58.53" y1="-6.31611" x2="-6.89244" y2="56.6818" gradientUnits="userSpaceOnUse">
<stop stop-color="#55B5CB"/>
<stop offset="0.5099" stop-color="#8DC9D8"/>
<stop offset="1"/>
</linearGradient>
<linearGradient id="paint8_linear" x1="54.7679" y1="-10.2214" x2="-10.6545" y2="52.7766" gradientUnits="userSpaceOnUse">
<stop stop-color="#55B5CB"/>
<stop offset="0.5099" stop-color="#8DC9D8"/>
<stop offset="1"/>
</linearGradient>
<linearGradient id="paint9_linear" x1="54.6964" y1="-10.2969" x2="-10.7261" y2="52.7012" gradientUnits="userSpaceOnUse">
<stop stop-color="#55B5CB"/>
<stop offset="0.5099" stop-color="#8DC9D8"/>
<stop offset="1"/>
</linearGradient>
<linearGradient id="paint10_linear" x1="48.245" y1="-16.9942" x2="-17.1774" y2="46.0037" gradientUnits="userSpaceOnUse">
<stop stop-color="#55B5CB"/>
<stop offset="0.5099" stop-color="#8DC9D8"/>
<stop offset="1"/>
</linearGradient>
<linearGradient id="paint11_linear" x1="59.9618" y1="-4.82866" x2="-5.46059" y2="58.1692" gradientUnits="userSpaceOnUse">
<stop stop-color="#55B5CB"/>
<stop offset="0.5099" stop-color="#8DC9D8"/>
<stop offset="1"/>
</linearGradient>
<linearGradient id="paint12_linear" x1="51.2587" y1="-13.8658" x2="-14.1637" y2="49.1321" gradientUnits="userSpaceOnUse">
<stop stop-color="#55B5CB"/>
<stop offset="0.5099" stop-color="#8DC9D8"/>
<stop offset="1"/>
</linearGradient>
<linearGradient id="paint13_linear" x1="57.2531" y1="-7.64204" x2="-8.16933" y2="55.3558" gradientUnits="userSpaceOnUse">
<stop stop-color="#55B5CB"/>
<stop offset="0.5099" stop-color="#8DC9D8"/>
<stop offset="1"/>
</linearGradient>
<linearGradient id="paint14_linear" x1="53.8033" y1="-11.2246" x2="-11.6191" y2="51.7734" gradientUnits="userSpaceOnUse">
<stop stop-color="#55B5CB"/>
<stop offset="0.5099" stop-color="#8DC9D8"/>
<stop offset="1"/>
</linearGradient>
<linearGradient id="paint15_linear" x1="53.6641" y1="-11.3707" x2="-11.7583" y2="51.6272" gradientUnits="userSpaceOnUse">
<stop stop-color="#55B5CB"/>
<stop offset="0.5099" stop-color="#8DC9D8"/>
<stop offset="1"/>
</linearGradient>
<linearGradient id="paint16_linear" x1="51.1431" y1="-13.9894" x2="-14.2793" y2="49.0084" gradientUnits="userSpaceOnUse">
<stop stop-color="#55B5CB"/>
<stop offset="0.5099" stop-color="#8DC9D8"/>
<stop offset="1"/>
</linearGradient>
<linearGradient id="paint17_linear" x1="52.0209" y1="-13.0767" x2="-13.4017" y2="49.9213" gradientUnits="userSpaceOnUse">
<stop stop-color="#55B5CB"/>
<stop offset="0.5099" stop-color="#8DC9D8"/>
<stop offset="1"/>
</linearGradient>
<linearGradient id="paint18_linear" x1="51.5324" y1="-13.5828" x2="-13.8901" y2="49.4151" gradientUnits="userSpaceOnUse">
<stop stop-color="#55B5CB"/>
<stop offset="0.5099" stop-color="#8DC9D8"/>
<stop offset="1"/>
</linearGradient>
<linearGradient id="paint19_linear" x1="51.7143" y1="-13.3954" x2="-13.7082" y2="49.6025" gradientUnits="userSpaceOnUse">
<stop stop-color="#55B5CB"/>
<stop offset="0.5099" stop-color="#8DC9D8"/>
<stop offset="1"/>
</linearGradient>
<linearGradient id="paint20_linear" x1="81.742" y1="17.7909" x2="16.3199" y2="80.7885" gradientUnits="userSpaceOnUse">
<stop stop-color="#55B5CB"/>
<stop offset="0.5099" stop-color="#8DC9D8"/>
<stop offset="1"/>
</linearGradient>
<linearGradient id="paint21_linear" x1="82.4918" y1="18.5693" x2="17.0691" y2="81.5674" gradientUnits="userSpaceOnUse">
<stop stop-color="#55B5CB"/>
<stop offset="0.5099" stop-color="#8DC9D8"/>
<stop offset="1"/>
</linearGradient>
<linearGradient id="paint22_linear" x1="82.0701" y1="18.1312" x2="16.6474" y2="81.129" gradientUnits="userSpaceOnUse">
<stop stop-color="#55B5CB"/>
<stop offset="0.5099" stop-color="#8DC9D8"/>
<stop offset="1"/>
</linearGradient>
<linearGradient id="paint23_linear" x1="82.2884" y1="18.3568" x2="16.866" y2="81.3544" gradientUnits="userSpaceOnUse">
<stop stop-color="#55B5CB"/>
<stop offset="0.5099" stop-color="#8DC9D8"/>
<stop offset="1"/>
</linearGradient>
<linearGradient id="paint24_linear" x1="80.9841" y1="17.0044" x2="15.5618" y2="80.0026" gradientUnits="userSpaceOnUse">
<stop stop-color="#55B5CB"/>
<stop offset="0.5099" stop-color="#8DC9D8"/>
<stop offset="1"/>
</linearGradient>
<linearGradient id="paint25_linear" x1="81.7373" y1="17.7837" x2="16.3152" y2="80.7816" gradientUnits="userSpaceOnUse">
<stop stop-color="#55B5CB"/>
<stop offset="0.5099" stop-color="#8DC9D8"/>
<stop offset="1"/>
</linearGradient>
<linearGradient id="paint26_linear" x1="81.314" y1="17.3451" x2="15.8918" y2="80.3428" gradientUnits="userSpaceOnUse">
<stop stop-color="#55B5CB"/>
<stop offset="0.5099" stop-color="#8DC9D8"/>
<stop offset="1"/>
</linearGradient>
<linearGradient id="paint27_linear" x1="81.5312" y1="17.5708" x2="16.1087" y2="80.5688" gradientUnits="userSpaceOnUse">
<stop stop-color="#55B5CB"/>
<stop offset="0.5099" stop-color="#8DC9D8"/>
<stop offset="1"/>
</linearGradient>
<linearGradient id="paint28_linear" x1="78.0617" y1="13.9692" x2="12.639" y2="76.9669" gradientUnits="userSpaceOnUse">
<stop stop-color="#55B5CB"/>
<stop offset="0.5099" stop-color="#8DC9D8"/>
<stop offset="1"/>
</linearGradient>
<linearGradient id="paint29_linear" x1="78.811" y1="14.7469" x2="13.3884" y2="77.7449" gradientUnits="userSpaceOnUse">
<stop stop-color="#55B5CB"/>
<stop offset="0.5099" stop-color="#8DC9D8"/>
<stop offset="1"/>
</linearGradient>
<linearGradient id="paint30_linear" x1="78.3892" y1="14.3087" x2="12.9666" y2="77.3065" gradientUnits="userSpaceOnUse">
<stop stop-color="#55B5CB"/>
<stop offset="0.5099" stop-color="#8DC9D8"/>
<stop offset="1"/>
</linearGradient>
<linearGradient id="paint31_linear" x1="78.6075" y1="14.5347" x2="13.1851" y2="77.5324" gradientUnits="userSpaceOnUse">
<stop stop-color="#55B5CB"/>
<stop offset="0.5099" stop-color="#8DC9D8"/>
<stop offset="1"/>
</linearGradient>
<linearGradient id="paint32_linear" x1="47.8149" y1="-17.4438" x2="-17.6076" y2="45.5541" gradientUnits="userSpaceOnUse">
<stop stop-color="#55B5CB"/>
<stop offset="0.5099" stop-color="#8DC9D8"/>
<stop offset="1"/>
</linearGradient>
<linearGradient id="paint33_linear" x1="44.0158" y1="-21.3887" x2="-21.4066" y2="41.6092" gradientUnits="userSpaceOnUse">
<stop stop-color="#55B5CB"/>
<stop offset="0.5099" stop-color="#8DC9D8"/>
<stop offset="1"/>
</linearGradient>
<linearGradient id="paint34_linear" x1="43.1425" y1="-22.2966" x2="-22.2799" y2="40.7013" gradientUnits="userSpaceOnUse">
<stop stop-color="#55B5CB"/>
<stop offset="0.5099" stop-color="#8DC9D8"/>
<stop offset="1"/>
</linearGradient>
<linearGradient id="paint35_linear" x1="45.6405" y1="-19.7017" x2="-19.782" y2="43.2962" gradientUnits="userSpaceOnUse">
<stop stop-color="#55B5CB"/>
<stop offset="0.5099" stop-color="#8DC9D8"/>
<stop offset="1"/>
</linearGradient>
<linearGradient id="paint36_linear" x1="46.3924" y1="-18.923" x2="-19.03" y2="44.075" gradientUnits="userSpaceOnUse">
<stop stop-color="#55B5CB"/>
<stop offset="0.5099" stop-color="#8DC9D8"/>
<stop offset="1"/>
</linearGradient>
<linearGradient id="paint37_linear" x1="45.9685" y1="-19.3613" x2="-19.4539" y2="43.6366" gradientUnits="userSpaceOnUse">
<stop stop-color="#55B5CB"/>
<stop offset="0.5099" stop-color="#8DC9D8"/>
<stop offset="1"/>
</linearGradient>
<linearGradient id="paint38_linear" x1="46.1856" y1="-19.1355" x2="-19.2369" y2="43.8624" gradientUnits="userSpaceOnUse">
<stop stop-color="#55B5CB"/>
<stop offset="0.5099" stop-color="#8DC9D8"/>
<stop offset="1"/>
</linearGradient>
<linearGradient id="paint39_linear" x1="46.4252" y1="-18.8859" x2="-18.9973" y2="44.112" gradientUnits="userSpaceOnUse">
<stop stop-color="#55B5CB"/>
<stop offset="0.5099" stop-color="#8DC9D8"/>
<stop offset="1"/>
</linearGradient>
<linearGradient id="paint40_linear" x1="47.1769" y1="-18.1066" x2="-18.2455" y2="44.8913" gradientUnits="userSpaceOnUse">
<stop stop-color="#55B5CB"/>
<stop offset="0.5099" stop-color="#8DC9D8"/>
<stop offset="1"/>
</linearGradient>
<linearGradient id="paint41_linear" x1="46.7529" y1="-18.5454" x2="-18.6696" y2="44.4524" gradientUnits="userSpaceOnUse">
<stop stop-color="#55B5CB"/>
<stop offset="0.5099" stop-color="#8DC9D8"/>
<stop offset="1"/>
</linearGradient>
<linearGradient id="paint42_linear" x1="46.9705" y1="-18.319" x2="-18.452" y2="44.6789" gradientUnits="userSpaceOnUse">
<stop stop-color="#55B5CB"/>
<stop offset="0.5099" stop-color="#8DC9D8"/>
<stop offset="1"/>
</linearGradient>
<linearGradient id="paint43_linear" x1="49.233" y1="-15.9706" x2="-16.1895" y2="47.0274" gradientUnits="userSpaceOnUse">
<stop stop-color="#55B5CB"/>
<stop offset="0.5099" stop-color="#8DC9D8"/>
<stop offset="1"/>
</linearGradient>
<linearGradient id="paint44_linear" x1="49.9847" y1="-15.1923" x2="-15.4378" y2="47.8056" gradientUnits="userSpaceOnUse">
<stop stop-color="#55B5CB"/>
<stop offset="0.5099" stop-color="#8DC9D8"/>
<stop offset="1"/>
</linearGradient>
<linearGradient id="paint45_linear" x1="49.5611" y1="-15.6301" x2="-15.8614" y2="47.3678" gradientUnits="userSpaceOnUse">
<stop stop-color="#55B5CB"/>
<stop offset="0.5099" stop-color="#8DC9D8"/>
<stop offset="1"/>
</linearGradient>
<linearGradient id="paint46_linear" x1="49.7793" y1="-15.4046" x2="-15.6432" y2="47.5933" gradientUnits="userSpaceOnUse">
<stop stop-color="#55B5CB"/>
<stop offset="0.5099" stop-color="#8DC9D8"/>
<stop offset="1"/>
</linearGradient>
<linearGradient id="paint47_linear" x1="50.0672" y1="-15.1063" x2="-15.3553" y2="47.8916" gradientUnits="userSpaceOnUse">
<stop stop-color="#55B5CB"/>
<stop offset="0.5099" stop-color="#8DC9D8"/>
<stop offset="1"/>
</linearGradient>
<linearGradient id="paint48_linear" x1="50.8167" y1="-14.3281" x2="-14.6058" y2="48.6699" gradientUnits="userSpaceOnUse">
<stop stop-color="#55B5CB"/>
<stop offset="0.5099" stop-color="#8DC9D8"/>
<stop offset="1"/>
</linearGradient>
<linearGradient id="paint49_linear" x1="50.3949" y1="-14.7659" x2="-15.0276" y2="48.232" gradientUnits="userSpaceOnUse">
<stop stop-color="#55B5CB"/>
<stop offset="0.5099" stop-color="#8DC9D8"/>
<stop offset="1"/>
</linearGradient>
<linearGradient id="paint50_linear" x1="50.6106" y1="-14.5404" x2="-14.8119" y2="48.4575" gradientUnits="userSpaceOnUse">
<stop stop-color="#55B5CB"/>
<stop offset="0.5099" stop-color="#8DC9D8"/>
<stop offset="1"/>
</linearGradient>
<linearGradient id="paint51_linear" x1="50.8551" y1="-14.2858" x2="-14.5673" y2="48.7121" gradientUnits="userSpaceOnUse">
<stop stop-color="#55B5CB"/>
<stop offset="0.5099" stop-color="#8DC9D8"/>
<stop offset="1"/>
</linearGradient>
<linearGradient id="paint52_linear" x1="51.6062" y1="-13.5071" x2="-13.8162" y2="49.4908" gradientUnits="userSpaceOnUse">
<stop stop-color="#55B5CB"/>
<stop offset="0.5099" stop-color="#8DC9D8"/>
<stop offset="1"/>
</linearGradient>
<linearGradient id="paint53_linear" x1="51.1831" y1="-13.9454" x2="-14.2395" y2="49.0525" gradientUnits="userSpaceOnUse">
<stop stop-color="#55B5CB"/>
<stop offset="0.5099" stop-color="#8DC9D8"/>
<stop offset="1"/>
</linearGradient>
<linearGradient id="paint54_linear" x1="51.4001" y1="-13.7198" x2="-14.0224" y2="49.2781" gradientUnits="userSpaceOnUse">
<stop stop-color="#55B5CB"/>
<stop offset="0.5099" stop-color="#8DC9D8"/>
<stop offset="1"/>
</linearGradient>
<linearGradient id="paint55_linear" x1="53.7707" y1="-11.2585" x2="-11.6518" y2="51.7394" gradientUnits="userSpaceOnUse">
<stop stop-color="#55B5CB"/>
<stop offset="0.5099" stop-color="#8DC9D8"/>
<stop offset="1"/>
</linearGradient>
<linearGradient id="paint56_linear" x1="54.52" y1="-10.4802" x2="-10.9024" y2="52.5177" gradientUnits="userSpaceOnUse">
<stop stop-color="#55B5CB"/>
<stop offset="0.5099" stop-color="#8DC9D8"/>
<stop offset="1"/>
</linearGradient>
<linearGradient id="paint57_linear" x1="54.0964" y1="-10.9178" x2="-11.3261" y2="52.0801" gradientUnits="userSpaceOnUse">
<stop stop-color="#55B5CB"/>
<stop offset="0.5099" stop-color="#8DC9D8"/>
<stop offset="1"/>
</linearGradient>
<linearGradient id="paint58_linear" x1="54.3139" y1="-10.6929" x2="-11.1085" y2="52.3049" gradientUnits="userSpaceOnUse">
<stop stop-color="#55B5CB"/>
<stop offset="0.5099" stop-color="#8DC9D8"/>
<stop offset="1"/>
</linearGradient>
<linearGradient id="paint59_linear" x1="54.5579" y1="-10.4408" x2="-10.8645" y2="52.5571" gradientUnits="userSpaceOnUse">
<stop stop-color="#55B5CB"/>
<stop offset="0.5099" stop-color="#8DC9D8"/>
<stop offset="1"/>
</linearGradient>
<linearGradient id="paint60_linear" x1="55.3079" y1="-9.66224" x2="-10.1148" y2="53.3357" gradientUnits="userSpaceOnUse">
<stop stop-color="#55B5CB"/>
<stop offset="0.5099" stop-color="#8DC9D8"/>
<stop offset="1"/>
</linearGradient>
<linearGradient id="paint61_linear" x1="54.8846" y1="-10.1005" x2="-10.5379" y2="52.8974" gradientUnits="userSpaceOnUse">
<stop stop-color="#55B5CB"/>
<stop offset="0.5099" stop-color="#8DC9D8"/>
<stop offset="1"/>
</linearGradient>
<linearGradient id="paint62_linear" x1="55.103" y1="-9.87502" x2="-10.3195" y2="53.1229" gradientUnits="userSpaceOnUse">
<stop stop-color="#55B5CB"/>
<stop offset="0.5099" stop-color="#8DC9D8"/>
<stop offset="1"/>
</linearGradient>
<linearGradient id="paint63_linear" x1="65.5866" y1="1.01352" x2="0.163699" y2="64.0116" gradientUnits="userSpaceOnUse">
<stop stop-color="#55B5CB"/>
<stop offset="0.5099" stop-color="#8DC9D8"/>
<stop offset="1"/>
</linearGradient>
<linearGradient id="paint64_linear" x1="58.7203" y1="-6.11863" x2="-6.70201" y2="56.8793" gradientUnits="userSpaceOnUse">
<stop stop-color="#55B5CB"/>
<stop offset="0.5099" stop-color="#8DC9D8"/>
<stop offset="1"/>
</linearGradient>
<linearGradient id="paint65_linear" x1="62.6734" y1="-2.01283" x2="-2.74911" y2="60.9851" gradientUnits="userSpaceOnUse">
<stop stop-color="#55B5CB"/>
<stop offset="0.5099" stop-color="#8DC9D8"/>
<stop offset="1"/>
</linearGradient>
<linearGradient id="paint66_linear" x1="62.836" y1="-1.8445" x2="-2.5865" y2="61.1534" gradientUnits="userSpaceOnUse">
<stop stop-color="#55B5CB"/>
<stop offset="0.5099" stop-color="#8DC9D8"/>
<stop offset="1"/>
</linearGradient>
<linearGradient id="paint67_linear" x1="72.6183" y1="8.31619" x2="7.19582" y2="71.3142" gradientUnits="userSpaceOnUse">
<stop stop-color="#55B5CB"/>
<stop offset="0.5099" stop-color="#8DC9D8"/>
<stop offset="1"/>
</linearGradient>
<linearGradient id="paint68_linear" x1="65.75" y1="1.1839" x2="0.327852" y2="64.1816" gradientUnits="userSpaceOnUse">
<stop stop-color="#55B5CB"/>
<stop offset="0.5099" stop-color="#8DC9D8"/>
<stop offset="1"/>
</linearGradient>
<linearGradient id="paint69_linear" x1="69.7051" y1="5.28949" x2="4.28282" y2="68.2872" gradientUnits="userSpaceOnUse">
<stop stop-color="#55B5CB"/>
<stop offset="0.5099" stop-color="#8DC9D8"/>
<stop offset="1"/>
</linearGradient>
<linearGradient id="paint70_linear" x1="69.8678" y1="5.45814" x2="4.44549" y2="68.4561" gradientUnits="userSpaceOnUse">
<stop stop-color="#55B5CB"/>
<stop offset="0.5099" stop-color="#8DC9D8"/>
<stop offset="1"/>
</linearGradient>
<linearGradient id="paint71_linear" x1="79.5274" y1="15.4912" x2="14.105" y2="78.489" gradientUnits="userSpaceOnUse">
<stop stop-color="#55B5CB"/>
<stop offset="0.5099" stop-color="#8DC9D8"/>
<stop offset="1"/>
</linearGradient>
<linearGradient id="paint72_linear" x1="72.6592" y1="8.35875" x2="7.23684" y2="71.3569" gradientUnits="userSpaceOnUse">
<stop stop-color="#55B5CB"/>
<stop offset="0.5099" stop-color="#8DC9D8"/>
<stop offset="1"/>
</linearGradient>
<linearGradient id="paint73_linear" x1="76.6142" y1="12.4645" x2="11.192" y2="75.4627" gradientUnits="userSpaceOnUse">
<stop stop-color="#55B5CB"/>
<stop offset="0.5099" stop-color="#8DC9D8"/>
<stop offset="1"/>
</linearGradient>
<linearGradient id="paint74_linear" x1="76.7773" y1="12.6326" x2="11.355" y2="75.6304" gradientUnits="userSpaceOnUse">
<stop stop-color="#55B5CB"/>
<stop offset="0.5099" stop-color="#8DC9D8"/>
<stop offset="1"/>
</linearGradient>
<linearGradient id="paint75_linear" x1="68.7997" y1="4.34664" x2="3.37725" y2="67.3445" gradientUnits="userSpaceOnUse">
<stop stop-color="#55B5CB"/>
<stop offset="0.5099" stop-color="#8DC9D8"/>
<stop offset="1"/>
</linearGradient>
<linearGradient id="paint76_linear" x1="61.9316" y1="-2.78491" x2="-3.49087" y2="60.213" gradientUnits="userSpaceOnUse">
<stop stop-color="#55B5CB"/>
<stop offset="0.5099" stop-color="#8DC9D8"/>
<stop offset="1"/>
</linearGradient>
<linearGradient id="paint77_linear" x1="65.8833" y1="1.32056" x2="0.461044" y2="64.3182" gradientUnits="userSpaceOnUse">
<stop stop-color="#55B5CB"/>
<stop offset="0.5099" stop-color="#8DC9D8"/>
<stop offset="1"/>
</linearGradient>
<linearGradient id="paint78_linear" x1="66.0452" y1="1.48885" x2="0.622799" y2="64.4867" gradientUnits="userSpaceOnUse">
<stop stop-color="#55B5CB"/>
<stop offset="0.5099" stop-color="#8DC9D8"/>
<stop offset="1"/>
</linearGradient>
<linearGradient id="paint79_linear" x1="75.7304" y1="11.5459" x2="10.3077" y2="74.5436" gradientUnits="userSpaceOnUse">
<stop stop-color="#55B5CB"/>
<stop offset="0.5099" stop-color="#8DC9D8"/>
<stop offset="1"/>
</linearGradient>
<linearGradient id="paint80_linear" x1="68.8622" y1="4.41366" x2="3.43975" y2="67.4117" gradientUnits="userSpaceOnUse">
<stop stop-color="#55B5CB"/>
<stop offset="0.5099" stop-color="#8DC9D8"/>
<stop offset="1"/>
</linearGradient>
<linearGradient id="paint81_linear" x1="72.817" y1="8.51977" x2="7.39454" y2="71.5179" gradientUnits="userSpaceOnUse">
<stop stop-color="#55B5CB"/>
<stop offset="0.5099" stop-color="#8DC9D8"/>
<stop offset="1"/>
</linearGradient>
<linearGradient id="paint82_linear" x1="72.978" y1="8.68814" x2="7.55554" y2="71.6859" gradientUnits="userSpaceOnUse">
<stop stop-color="#55B5CB"/>
<stop offset="0.5099" stop-color="#8DC9D8"/>
<stop offset="1"/>
</linearGradient>
</defs>
</svg>
