<svg width="34" height="36" viewBox="0 0 34 36" fill="none" xmlns="http://www.w3.org/2000/svg">
<path d="M32.8135 9.11709L32.8036 9.07759C32.0049 5.84871 28.4041 2.38395 25.0973 1.66313L25.06 1.65545C19.7114 0.635113 14.2883 0.635113 8.94082 1.65545L8.90242 1.66313C5.59674 2.38395 1.99594 5.84871 1.19612 9.07759L1.18735 9.11709C0.199921 13.6263 0.199921 18.1992 1.18735 22.7084L1.19612 22.7479C1.96182 25.839 5.29448 29.1446 8.47783 30.0537V33.658C8.47783 34.9625 10.0676 35.6032 10.9716 34.6619L14.6234 30.8659C15.4155 30.9102 16.2079 30.9349 17.0004 30.9349C19.6928 30.9349 22.3863 30.6804 25.06 30.1702L25.0973 30.1625C28.4041 29.4417 32.0049 25.9769 32.8036 22.748L32.8135 22.7086C33.8009 18.1992 33.8009 13.6263 32.8135 9.11709ZM29.9236 22.0545C29.3904 24.1611 26.6563 26.7799 24.484 27.2638C21.6401 27.8045 18.7737 28.0357 15.9102 27.9564C15.8532 27.9548 15.7985 27.9769 15.7588 28.0177C15.3524 28.4348 13.0924 30.7549 13.0924 30.7549L10.2563 33.6656C10.0489 33.8817 9.68468 33.7347 9.68468 33.4363V27.4654C9.68468 27.3668 9.61425 27.283 9.51737 27.264C9.51682 27.2639 9.51627 27.2638 9.51572 27.2636C7.34339 26.7798 4.61042 24.1609 4.07611 22.0544C3.18743 17.9786 3.18743 13.8467 4.07611 9.77087C4.61042 7.66437 7.34339 5.0455 9.51572 4.56166C14.4825 3.61703 19.5183 3.61703 24.484 4.56166C26.6574 5.0455 29.3904 7.66437 29.9236 9.77087C30.8133 13.8469 30.8133 17.9787 29.9236 22.0545Z" fill="#6F3FAA"/>
<path d="M21.7256 24.8107C21.3917 24.7093 21.0734 24.6412 20.7778 24.5185C17.715 23.2478 14.8963 21.6085 12.6635 19.0955C11.3938 17.6664 10.4 16.0531 9.5599 14.3457C9.16152 13.536 8.8258 12.6946 8.4836 11.8587C8.17158 11.0964 8.63117 10.3089 9.11511 9.73457C9.56922 9.19555 10.1536 8.78302 10.7864 8.479C11.2803 8.24169 11.7676 8.37851 12.1283 8.79717C12.9081 9.70231 13.6245 10.6538 14.2045 11.7029C14.5612 12.3483 14.4633 13.1371 13.8169 13.5763C13.6598 13.6831 13.5166 13.8084 13.3703 13.9289C13.2419 14.0346 13.1211 14.1413 13.0331 14.2844C12.8723 14.5462 12.8646 14.8549 12.9682 15.1395C13.7653 17.3303 15.109 19.0338 17.314 19.9513C17.6669 20.0981 18.0213 20.2691 18.4277 20.2217C19.1085 20.1421 19.3289 19.3954 19.806 19.0053C20.2723 18.624 20.8681 18.619 21.3704 18.9368C21.8728 19.2548 22.3598 19.5961 22.8438 19.941C23.319 20.2796 23.7921 20.6108 24.2304 20.9968C24.6518 21.368 24.797 21.8549 24.5597 22.3586C24.1252 23.2811 23.493 24.0485 22.5811 24.5384C22.3236 24.6765 22.016 24.7213 21.7256 24.8107C21.3917 24.7092 22.016 24.7213 21.7256 24.8107Z" fill="#6F3FAA"/>
<path d="M17.0088 7.42427C21.015 7.53651 24.3054 10.1952 25.0105 14.1559C25.1307 14.8307 25.1735 15.5207 25.2269 16.2057C25.2494 16.4938 25.0863 16.7675 24.7753 16.7712C24.4542 16.7751 24.3097 16.5064 24.2889 16.2184C24.2476 15.6483 24.219 15.0757 24.1404 14.5104C23.7257 11.526 21.346 9.05704 18.3755 8.52723C17.9285 8.44747 17.471 8.42651 17.0182 8.379C16.732 8.34894 16.3571 8.33161 16.2937 7.97581C16.2405 7.67749 16.4923 7.43996 16.7763 7.42471C16.8536 7.42044 16.9312 7.42394 17.0088 7.42427C21.015 7.53651 16.9312 7.42394 17.0088 7.42427Z" fill="#6F3FAA"/>
<path d="M23.0972 15.3166C23.0906 15.3666 23.0871 15.4842 23.0578 15.595C22.9515 15.9972 22.3417 16.0476 22.2013 15.6417C22.1597 15.5212 22.1534 15.3842 22.1532 15.2545C22.1518 14.4059 21.9674 13.5583 21.5395 12.82C21.0996 12.0613 20.4276 11.4234 19.6394 11.0374C19.1629 10.804 18.6474 10.659 18.1251 10.5725C17.8968 10.5348 17.666 10.5119 17.4366 10.4799C17.1586 10.4413 17.0102 10.2641 17.0233 9.99018C17.0356 9.73345 17.2232 9.5488 17.503 9.5646C18.4224 9.61683 19.3104 9.81552 20.1278 10.2483C21.7899 11.1286 22.7394 12.518 23.0165 14.3733C23.0291 14.4573 23.0492 14.5406 23.0556 14.6249C23.0713 14.8333 23.0812 15.0418 23.0972 15.3166C23.0906 15.3666 23.0812 15.0418 23.0972 15.3166Z" fill="#6F3FAA"/>
<path d="M20.6053 15.2197C20.2701 15.2257 20.0908 15.0402 20.0562 14.7329C20.0322 14.5186 20.0132 14.3015 19.9621 14.093C19.8613 13.6825 19.6431 13.302 19.2977 13.0504C19.1347 12.9316 18.9499 12.845 18.7564 12.7892C18.5105 12.7182 18.2552 12.7377 18.0099 12.6776C17.7435 12.6123 17.5962 12.3966 17.6381 12.1467C17.6762 11.9193 17.8975 11.7417 18.146 11.7597C19.6992 11.8719 20.8093 12.6749 20.9677 14.5034C20.9789 14.6324 20.9921 14.7688 20.9634 14.8922C20.9144 15.1035 20.7579 15.2094 20.6053 15.2197C20.2701 15.2257 20.7579 15.2094 20.6053 15.2197Z" fill="#6F3FAA"/>
</svg>
